# Blender 5.2.2 LTS
# www.blender.org
mtllib hammer.mtl
o Cube
v 0.478060 0.000000 -0.478060
v -0.478060 0.000000 0.478060
v 0.478060 0.000000 0.478060
v -0.478060 0.000000 -0.478060
v -0.466185 0.354859 0.361090
v -0.473720 0.354859 0.347418
v -0.478060 0.354859 0.332422
v -0.361090 0.354859 0.466185
v -0.347418 0.354859 0.473720
v -0.332422 0.354859 0.478060
v -0.361090 0.354859 -0.466185
v -0.347418 0.354859 -0.473720
v -0.332422 0.354859 -0.478060
v -0.466185 0.354859 -0.361090
v 0.478060 0.050577 -0.478060
v -0.473720 0.354859 -0.347418
v -0.478060 0.354859 -0.332422
v -0.478060 0.050577 0.478060
v 0.466185 0.354859 0.361090
v 0.473720 0.354859 0.347418
v 0.478060 0.050577 0.478060
v 0.478060 0.354859 0.332422
v 0.361090 0.354859 0.466185
v -0.478060 0.050577 -0.478060
v 0.347418 0.354859 0.473720
v 0.332422 0.354859 0.478060
v 0.466185 0.354859 -0.361090
v 0.473720 0.354859 -0.347418
v 0.478060 0.354859 -0.332422
v 0.361090 0.354859 -0.466185
v 0.347418 0.354859 -0.473720
v 0.332422 0.354859 -0.478060
v 0.324725 1.084982 -0.285702
v 0.397319 1.071317 -0.315771
v 0.381365 1.079987 -0.309163
v 0.315771 1.071317 -0.397319
v 0.285702 1.084982 -0.324725
v 0.309163 1.079987 -0.381365
v 0.285702 1.084982 0.324725
v 0.315771 1.071317 0.397319
v 0.309163 1.079987 0.381365
v 0.397319 1.071317 0.315771
v 0.324725 1.084982 0.285702
v 0.381365 1.079987 0.309163
v -0.285702 1.084982 -0.324725
v -0.315771 1.071317 -0.397319
v -0.309163 1.079987 -0.381365
v -0.397319 1.071317 -0.315771
v -0.324725 1.084982 -0.285702
v -0.381365 1.079987 -0.309163
v -0.324725 1.084982 0.285702
v -0.397319 1.071317 0.315771
v -0.381365 1.079987 0.309163
v -0.315771 1.071317 0.397319
v -0.285702 1.084982 0.324725
v -0.309163 1.079987 0.381365
v 0.332422 0.320092 -0.478060
v 0.361090 0.320092 -0.466185
v 0.361090 0.295253 -0.478060
v 0.347418 0.320092 -0.473720
v 0.466185 0.320092 -0.361090
v 0.478060 0.320092 -0.332422
v 0.478060 0.295253 -0.361090
v 0.473720 0.320092 -0.347418
v -0.332422 0.320092 0.478060
v -0.361090 0.320092 0.466185
v -0.361090 0.295253 0.478060
v -0.347418 0.320092 0.473720
v -0.466185 0.320092 0.361090
v -0.478060 0.320092 0.332422
v -0.478060 0.295253 0.361090
v -0.473720 0.320092 0.347418
v 0.478060 0.320092 0.332422
v 0.466185 0.320092 0.361090
v 0.478060 0.295253 0.361090
v 0.473720 0.320092 0.347418
v 0.361090 0.320092 0.466185
v 0.332422 0.320092 0.478060
v 0.361090 0.295253 0.478060
v 0.347418 0.320092 0.473720
v -0.478060 0.320092 -0.332422
v -0.466185 0.320092 -0.361090
v -0.478060 0.295253 -0.361090
v -0.473720 0.320092 -0.347418
v -0.361090 0.320092 -0.466185
v -0.332422 0.320092 -0.478060
v -0.361090 0.295253 -0.478060
v -0.347418 0.320092 -0.473720
v 0.332422 0.964873 -0.478060
v 0.342807 1.013665 -0.462589
v 0.361090 0.964873 -0.466185
v 0.337615 0.992156 -0.472405
v 0.346459 0.985215 -0.471405
v 0.353420 0.992156 -0.465859
v 0.347418 0.964873 -0.473720
v 0.462589 1.013665 -0.342807
v 0.478060 0.964873 -0.332422
v 0.466185 0.964873 -0.361090
v 0.472405 0.992156 -0.337615
v 0.471405 0.985215 -0.346459
v 0.473720 0.964873 -0.347418
v 0.465859 0.992156 -0.353420
v 0.466185 0.964873 0.361090
v 0.478060 0.964873 0.332422
v 0.462589 1.013665 0.342807
v 0.473720 0.964873 0.347418
v 0.471405 0.985215 0.346459
v 0.472405 0.992156 0.337615
v 0.465859 0.992156 0.353420
v 0.342807 1.013665 0.462589
v 0.332422 0.964873 0.478060
v 0.361090 0.964873 0.466185
v 0.337615 0.992156 0.472405
v 0.346459 0.985215 0.471405
v 0.347418 0.964873 0.473720
v 0.353420 0.992156 0.465859
v -0.478060 0.964873 -0.332422
v -0.462589 1.013665 -0.342807
v -0.466185 0.964873 -0.361090
v -0.472405 0.992156 -0.337615
v -0.471405 0.985215 -0.346459
v -0.465859 0.992156 -0.353420
v -0.473720 0.964873 -0.347418
v -0.342807 1.013665 -0.462589
v -0.332422 0.964873 -0.478060
v -0.361090 0.964873 -0.466185
v -0.337615 0.992156 -0.472405
v -0.346459 0.985215 -0.471405
v -0.347418 0.964873 -0.473720
v -0.353420 0.992156 -0.465859
v -0.332422 0.964873 0.478060
v -0.342807 1.013665 0.462589
v -0.361090 0.964873 0.466185
v -0.337615 0.992156 0.472405
v -0.346459 0.985215 0.471405
v -0.353420 0.992156 0.465859
v -0.347418 0.964873 0.473720
v -0.462589 1.013665 0.342807
v -0.478060 0.964873 0.332422
v -0.466185 0.964873 0.361090
v -0.472405 0.992156 0.337615
v -0.471405 0.985215 0.346459
v -0.473720 0.964873 0.347418
v -0.465859 0.992156 0.353420
v 0.302408 1.084982 -0.365056
v 0.365056 1.084982 -0.302408
v 0.365056 1.084982 0.302408
v 0.302408 1.084982 0.365056
v -0.365056 1.084982 -0.302408
v -0.302408 1.084982 -0.365056
v -0.302408 1.084982 0.365056
v -0.365056 1.084982 0.302408
v 0.000000 1.084982 -0.000000
v -0.478060 0.000000 -0.478060
v 0.478060 0.000000 0.478060
v -0.478060 0.000000 0.478060
v 0.478060 0.000000 -0.478060
v 0.466185 0.354859 0.361090
v 0.473720 0.354859 0.347418
v 0.478060 0.354859 0.332422
v 0.361090 0.354859 0.466185
v 0.347418 0.354859 0.473720
v 0.332422 0.354859 0.478060
v 0.361090 0.354859 -0.466185
v 0.347418 0.354859 -0.473720
v 0.332422 0.354859 -0.478060
v 0.466185 0.354859 -0.361090
v -0.478060 0.050577 -0.478060
v 0.473720 0.354859 -0.347418
v 0.478060 0.354859 -0.332422
v 0.478060 0.050577 0.478060
v -0.466185 0.354859 0.361090
v -0.473720 0.354859 0.347418
v -0.478060 0.050577 0.478060
v -0.478060 0.354859 0.332422
v -0.361090 0.354859 0.466185
v 0.478060 0.050577 -0.478060
v -0.347418 0.354859 0.473720
v -0.332422 0.354859 0.478060
v -0.466185 0.354859 -0.361090
v -0.473720 0.354859 -0.347418
v -0.478060 0.354859 -0.332422
v -0.361090 0.354859 -0.466185
v -0.347418 0.354859 -0.473720
v -0.332422 0.354859 -0.478060
v -0.324725 1.084982 -0.285702
v -0.397319 1.071317 -0.315771
v -0.381365 1.079987 -0.309163
v -0.315771 1.071317 -0.397319
v -0.285702 1.084982 -0.324725
v -0.309163 1.079987 -0.381365
v -0.285702 1.084982 0.324725
v -0.315771 1.071317 0.397319
v -0.309163 1.079987 0.381365
v -0.397319 1.071317 0.315771
v -0.324725 1.084982 0.285702
v -0.381365 1.079987 0.309163
v 0.285702 1.084982 -0.324725
v 0.315771 1.071317 -0.397319
v 0.309163 1.079987 -0.381365
v 0.397319 1.071317 -0.315771
v 0.324725 1.084982 -0.285702
v 0.381365 1.079987 -0.309163
v 0.324725 1.084982 0.285702
v 0.397319 1.071317 0.315771
v 0.381365 1.079987 0.309163
v 0.315771 1.071317 0.397319
v 0.285702 1.084982 0.324725
v 0.309163 1.079987 0.381365
v -0.332422 0.320092 -0.478060
v -0.361090 0.320092 -0.466185
v -0.361090 0.295253 -0.478060
v -0.347418 0.320092 -0.473720
v -0.466185 0.320092 -0.361090
v -0.478060 0.320092 -0.332422
v -0.478060 0.295253 -0.361090
v -0.473720 0.320092 -0.347418
v 0.332422 0.320092 0.478060
v 0.361090 0.320092 0.466185
v 0.361090 0.295253 0.478060
v 0.347418 0.320092 0.473720
v 0.466185 0.320092 0.361090
v 0.478060 0.320092 0.332422
v 0.478060 0.295253 0.361090
v 0.473720 0.320092 0.347418
v -0.478060 0.320092 0.332422
v -0.466185 0.320092 0.361090
v -0.478060 0.295253 0.361090
v -0.473720 0.320092 0.347418
v -0.361090 0.320092 0.466185
v -0.332422 0.320092 0.478060
v -0.361090 0.295253 0.478060
v -0.347418 0.320092 0.473720
v 0.478060 0.320092 -0.332422
v 0.466185 0.320092 -0.361090
v 0.478060 0.295253 -0.361090
v 0.473720 0.320092 -0.347418
v 0.361090 0.320092 -0.466185
v 0.332422 0.320092 -0.478060
v 0.361090 0.295253 -0.478060
v 0.347418 0.320092 -0.473720
v -0.332422 0.964873 -0.478060
v -0.342807 1.013665 -0.462589
v -0.361090 0.964873 -0.466185
v -0.337615 0.992156 -0.472405
v -0.346459 0.985215 -0.471405
v -0.353420 0.992156 -0.465859
v -0.347418 0.964873 -0.473720
v -0.462589 1.013665 -0.342807
v -0.478060 0.964873 -0.332422
v -0.466185 0.964873 -0.361090
v -0.472405 0.992156 -0.337615
v -0.471405 0.985215 -0.346459
v -0.473720 0.964873 -0.347418
v -0.465859 0.992156 -0.353420
v -0.466185 0.964873 0.361090
v -0.478060 0.964873 0.332422
v -0.462589 1.013665 0.342807
v -0.473720 0.964873 0.347418
v -0.471405 0.985215 0.346459
v -0.472405 0.992156 0.337615
v -0.465859 0.992156 0.353420
v -0.342807 1.013665 0.462589
v -0.332422 0.964873 0.478060
v -0.361090 0.964873 0.466185
v -0.337615 0.992156 0.472405
v -0.346459 0.985215 0.471405
v -0.347418 0.964873 0.473720
v -0.353420 0.992156 0.465859
v 0.478060 0.964873 -0.332422
v 0.462589 1.013665 -0.342807
v 0.466185 0.964873 -0.361090
v 0.472405 0.992156 -0.337615
v 0.471405 0.985215 -0.346459
v 0.465859 0.992156 -0.353420
v 0.473720 0.964873 -0.347418
v 0.342807 1.013665 -0.462589
v 0.332422 0.964873 -0.478060
v 0.361090 0.964873 -0.466185
v 0.337615 0.992156 -0.472405
v 0.346459 0.985215 -0.471405
v 0.347418 0.964873 -0.473720
v 0.353420 0.992156 -0.465859
v 0.332422 0.964873 0.478060
v 0.342807 1.013665 0.462589
v 0.361090 0.964873 0.466185
v 0.337615 0.992156 0.472405
v 0.346459 0.985215 0.471405
v 0.353420 0.992156 0.465859
v 0.347418 0.964873 0.473720
v 0.462589 1.013665 0.342807
v 0.478060 0.964873 0.332422
v 0.466185 0.964873 0.361090
v 0.472405 0.992156 0.337615
v 0.471405 0.985215 0.346459
v 0.473720 0.964873 0.347418
v 0.465859 0.992156 0.353420
v -0.302408 1.084982 -0.365056
v -0.365056 1.084982 -0.302408
v -0.365056 1.084982 0.302408
v -0.302408 1.084982 0.365056
v 0.365056 1.084982 -0.302408
v 0.302408 1.084982 -0.365056
v 0.302408 1.084982 0.365056
v 0.365056 1.084982 0.302408
v -0.466185 -0.354859 0.361090
v -0.473720 -0.354859 0.347418
v -0.478060 -0.354859 0.332422
v -0.361090 -0.354859 0.466185
v -0.347418 -0.354859 0.473720
v -0.332422 -0.354859 0.478060
v -0.361090 -0.354859 -0.466185
v -0.347418 -0.354859 -0.473720
v -0.332422 -0.354859 -0.478060
v -0.466185 -0.354859 -0.361090
v 0.478060 -0.050577 -0.478060
v -0.473720 -0.354859 -0.347418
v -0.478060 -0.354859 -0.332422
v -0.478060 -0.050577 0.478060
v 0.466185 -0.354859 0.361090
v 0.473720 -0.354859 0.347418
v 0.478060 -0.050577 0.478060
v 0.478060 -0.354859 0.332422
v 0.361090 -0.354859 0.466185
v -0.478060 -0.050577 -0.478060
v 0.347418 -0.354859 0.473720
v 0.332422 -0.354859 0.478060
v 0.466185 -0.354859 -0.361090
v 0.473720 -0.354859 -0.347418
v 0.478060 -0.354859 -0.332422
v 0.361090 -0.354859 -0.466185
v 0.347418 -0.354859 -0.473720
v 0.332422 -0.354859 -0.478060
v 0.324725 -1.084982 -0.285702
v 0.397319 -1.071317 -0.315771
v 0.381365 -1.079987 -0.309163
v 0.315771 -1.071317 -0.397319
v 0.285702 -1.084982 -0.324725
v 0.309163 -1.079987 -0.381365
v 0.285702 -1.084982 0.324725
v 0.315771 -1.071317 0.397319
v 0.309163 -1.079987 0.381365
v 0.397319 -1.071317 0.315771
v 0.324725 -1.084982 0.285702
v 0.381365 -1.079987 0.309163
v -0.285702 -1.084982 -0.324725
v -0.315771 -1.071317 -0.397319
v -0.309163 -1.079987 -0.381365
v -0.397319 -1.071317 -0.315771
v -0.324725 -1.084982 -0.285702
v -0.381365 -1.079987 -0.309163
v -0.324725 -1.084982 0.285702
v -0.397319 -1.071317 0.315771
v -0.381365 -1.079987 0.309163
v -0.315771 -1.071317 0.397319
v -0.285702 -1.084982 0.324725
v -0.309163 -1.079987 0.381365
v 0.332422 -0.320092 -0.478060
v 0.361090 -0.320092 -0.466185
v 0.361090 -0.295253 -0.478060
v 0.347418 -0.320092 -0.473720
v 0.466185 -0.320092 -0.361090
v 0.478060 -0.320092 -0.332422
v 0.478060 -0.295253 -0.361090
v 0.473720 -0.320092 -0.347418
v -0.332422 -0.320092 0.478060
v -0.361090 -0.320092 0.466185
v -0.361090 -0.295253 0.478060
v -0.347418 -0.320092 0.473720
v -0.466185 -0.320092 0.361090
v -0.478060 -0.320092 0.332422
v -0.478060 -0.295253 0.361090
v -0.473720 -0.320092 0.347418
v 0.478060 -0.320092 0.332422
v 0.466185 -0.320092 0.361090
v 0.478060 -0.295253 0.361090
v 0.473720 -0.320092 0.347418
v 0.361090 -0.320092 0.466185
v 0.332422 -0.320092 0.478060
v 0.361090 -0.295253 0.478060
v 0.347418 -0.320092 0.473720
v -0.478060 -0.320092 -0.332422
v -0.466185 -0.320092 -0.361090
v -0.478060 -0.295253 -0.361090
v -0.473720 -0.320092 -0.347418
v -0.361090 -0.320092 -0.466185
v -0.332422 -0.320092 -0.478060
v -0.361090 -0.295253 -0.478060
v -0.347418 -0.320092 -0.473720
v 0.332422 -0.964873 -0.478060
v 0.342807 -1.013665 -0.462589
v 0.361090 -0.964873 -0.466185
v 0.337615 -0.992156 -0.472405
v 0.346459 -0.985215 -0.471405
v 0.353420 -0.992156 -0.465859
v 0.347418 -0.964873 -0.473720
v 0.462589 -1.013665 -0.342807
v 0.478060 -0.964873 -0.332422
v 0.466185 -0.964873 -0.361090
v 0.472405 -0.992156 -0.337615
v 0.471405 -0.985215 -0.346459
v 0.473720 -0.964873 -0.347418
v 0.465859 -0.992156 -0.353420
v 0.466185 -0.964873 0.361090
v 0.478060 -0.964873 0.332422
v 0.462589 -1.013665 0.342807
v 0.473720 -0.964873 0.347418
v 0.471405 -0.985215 0.346459
v 0.472405 -0.992156 0.337615
v 0.465859 -0.992156 0.353420
v 0.342807 -1.013665 0.462589
v 0.332422 -0.964873 0.478060
v 0.361090 -0.964873 0.466185
v 0.337615 -0.992156 0.472405
v 0.346459 -0.985215 0.471405
v 0.347418 -0.964873 0.473720
v 0.353420 -0.992156 0.465859
v -0.478060 -0.964873 -0.332422
v -0.462589 -1.013665 -0.342807
v -0.466185 -0.964873 -0.361090
v -0.472405 -0.992156 -0.337615
v -0.471405 -0.985215 -0.346459
v -0.465859 -0.992156 -0.353420
v -0.473720 -0.964873 -0.347418
v -0.342807 -1.013665 -0.462589
v -0.332422 -0.964873 -0.478060
v -0.361090 -0.964873 -0.466185
v -0.337615 -0.992156 -0.472405
v -0.346459 -0.985215 -0.471405
v -0.347418 -0.964873 -0.473720
v -0.353420 -0.992156 -0.465859
v -0.332422 -0.964873 0.478060
v -0.342807 -1.013665 0.462589
v -0.361090 -0.964873 0.466185
v -0.337615 -0.992156 0.472405
v -0.346459 -0.985215 0.471405
v -0.353420 -0.992156 0.465859
v -0.347418 -0.964873 0.473720
v -0.462589 -1.013665 0.342807
v -0.478060 -0.964873 0.332422
v -0.466185 -0.964873 0.361090
v -0.472405 -0.992156 0.337615
v -0.471405 -0.985215 0.346459
v -0.473720 -0.964873 0.347418
v -0.465859 -0.992156 0.353420
v 0.302408 -1.084982 -0.365056
v 0.365056 -1.084982 -0.302408
v 0.365056 -1.084982 0.302408
v 0.302408 -1.084982 0.365056
v -0.365056 -1.084982 -0.302408
v -0.302408 -1.084982 -0.365056
v -0.302408 -1.084982 0.365056
v -0.365056 -1.084982 0.302408
v 0.000000 -1.084982 -0.000000
v 0.466185 -0.354859 0.361090
v 0.473720 -0.354859 0.347418
v 0.478060 -0.354859 0.332422
v 0.361090 -0.354859 0.466185
v 0.347418 -0.354859 0.473720
v 0.332422 -0.354859 0.478060
v 0.361090 -0.354859 -0.466185
v 0.347418 -0.354859 -0.473720
v 0.332422 -0.354859 -0.478060
v 0.466185 -0.354859 -0.361090
v -0.478060 -0.050577 -0.478060
v 0.473720 -0.354859 -0.347418
v 0.478060 -0.354859 -0.332422
v 0.478060 -0.050577 0.478060
v -0.466185 -0.354859 0.361090
v -0.473720 -0.354859 0.347418
v -0.478060 -0.050577 0.478060
v -0.478060 -0.354859 0.332422
v -0.361090 -0.354859 0.466185
v 0.478060 -0.050577 -0.478060
v -0.347418 -0.354859 0.473720
v -0.332422 -0.354859 0.478060
v -0.466185 -0.354859 -0.361090
v -0.473720 -0.354859 -0.347418
v -0.478060 -0.354859 -0.332422
v -0.361090 -0.354859 -0.466185
v -0.347418 -0.354859 -0.473720
v -0.332422 -0.354859 -0.478060
v -0.324725 -1.084982 -0.285702
v -0.397319 -1.071317 -0.315771
v -0.381365 -1.079987 -0.309163
v -0.315771 -1.071317 -0.397319
v -0.285702 -1.084982 -0.324725
v -0.309163 -1.079987 -0.381365
v -0.285702 -1.084982 0.324725
v -0.315771 -1.071317 0.397319
v -0.309163 -1.079987 0.381365
v -0.397319 -1.071317 0.315771
v -0.324725 -1.084982 0.285702
v -0.381365 -1.079987 0.309163
v 0.285702 -1.084982 -0.324725
v 0.315771 -1.071317 -0.397319
v 0.309163 -1.079987 -0.381365
v 0.397319 -1.071317 -0.315771
v 0.324725 -1.084982 -0.285702
v 0.381365 -1.079987 -0.309163
v 0.324725 -1.084982 0.285702
v 0.397319 -1.071317 0.315771
v 0.381365 -1.079987 0.309163
v 0.315771 -1.071317 0.397319
v 0.285702 -1.084982 0.324725
v 0.309163 -1.079987 0.381365
v -0.332422 -0.320092 -0.478060
v -0.361090 -0.320092 -0.466185
v -0.361090 -0.295253 -0.478060
v -0.347418 -0.320092 -0.473720
v -0.466185 -0.320092 -0.361090
v -0.478060 -0.320092 -0.332422
v -0.478060 -0.295253 -0.361090
v -0.473720 -0.320092 -0.347418
v 0.332422 -0.320092 0.478060
v 0.361090 -0.320092 0.466185
v 0.361090 -0.295253 0.478060
v 0.347418 -0.320092 0.473720
v 0.466185 -0.320092 0.361090
v 0.478060 -0.320092 0.332422
v 0.478060 -0.295253 0.361090
v 0.473720 -0.320092 0.347418
v -0.478060 -0.320092 0.332422
v -0.466185 -0.320092 0.361090
v -0.478060 -0.295253 0.361090
v -0.473720 -0.320092 0.347418
v -0.361090 -0.320092 0.466185
v -0.332422 -0.320092 0.478060
v -0.361090 -0.295253 0.478060
v -0.347418 -0.320092 0.473720
v 0.478060 -0.320092 -0.332422
v 0.466185 -0.320092 -0.361090
v 0.478060 -0.295253 -0.361090
v 0.473720 -0.320092 -0.347418
v 0.361090 -0.320092 -0.466185
v 0.332422 -0.320092 -0.478060
v 0.361090 -0.295253 -0.478060
v 0.347418 -0.320092 -0.473720
v -0.332422 -0.964873 -0.478060
v -0.342807 -1.013665 -0.462589
v -0.361090 -0.964873 -0.466185
v -0.337615 -0.992156 -0.472405
v -0.346459 -0.985215 -0.471405
v -0.353420 -0.992156 -0.465859
v -0.347418 -0.964873 -0.473720
v -0.462589 -1.013665 -0.342807
v -0.478060 -0.964873 -0.332422
v -0.466185 -0.964873 -0.361090
v -0.472405 -0.992156 -0.337615
v -0.471405 -0.985215 -0.346459
v -0.473720 -0.964873 -0.347418
v -0.465859 -0.992156 -0.353420
v -0.466185 -0.964873 0.361090
v -0.478060 -0.964873 0.332422
v -0.462589 -1.013665 0.342807
v -0.473720 -0.964873 0.347418
v -0.471405 -0.985215 0.346459
v -0.472405 -0.992156 0.337615
v -0.465859 -0.992156 0.353420
v -0.342807 -1.013665 0.462589
v -0.332422 -0.964873 0.478060
v -0.361090 -0.964873 0.466185
v -0.337615 -0.992156 0.472405
v -0.346459 -0.985215 0.471405
v -0.347418 -0.964873 0.473720
v -0.353420 -0.992156 0.465859
v 0.478060 -0.964873 -0.332422
v 0.462589 -1.013665 -0.342807
v 0.466185 -0.964873 -0.361090
v 0.472405 -0.992156 -0.337615
v 0.471405 -0.985215 -0.346459
v 0.465859 -0.992156 -0.353420
v 0.473720 -0.964873 -0.347418
v 0.342807 -1.013665 -0.462589
v 0.332422 -0.964873 -0.478060
v 0.361090 -0.964873 -0.466185
v 0.337615 -0.992156 -0.472405
v 0.346459 -0.985215 -0.471405
v 0.347418 -0.964873 -0.473720
v 0.353420 -0.992156 -0.465859
v 0.332422 -0.964873 0.478060
v 0.342807 -1.013665 0.462589
v 0.361090 -0.964873 0.466185
v 0.337615 -0.992156 0.472405
v 0.346459 -0.985215 0.471405
v 0.353420 -0.992156 0.465859
v 0.347418 -0.964873 0.473720
v 0.462589 -1.013665 0.342807
v 0.478060 -0.964873 0.332422
v 0.466185 -0.964873 0.361090
v 0.472405 -0.992156 0.337615
v 0.471405 -0.985215 0.346459
v 0.473720 -0.964873 0.347418
v 0.465859 -0.992156 0.353420
v -0.302408 -1.084982 -0.365056
v -0.365056 -1.084982 -0.302408
v -0.365056 -1.084982 0.302408
v -0.302408 -1.084982 0.365056
v 0.365056 -1.084982 -0.302408
v 0.302408 -1.084982 -0.365056
v 0.302408 -1.084982 0.365056
v 0.365056 -1.084982 0.302408
vn -0.4826 -0.0000 0.8758
vn -0.8758 -0.0000 0.4826
vn -0.0000 -0.0000 -1.0000
vn -0.7071 -0.0000 0.7071
vn -1.0000 -0.0000 -0.0000
vn -0.7071 -0.0000 -0.7071
vn 0.2780 -0.0000 -0.9606
vn 0.4826 -0.0000 -0.8758
vn 0.9606 -0.0000 -0.2780
vn 0.8758 -0.0000 -0.4826
vn 0.2780 -0.0000 0.9606
vn 0.4826 -0.0000 0.8758
vn 0.9606 -0.0000 0.2780
vn 0.8758 -0.0000 0.4826
vn -0.9606 -0.0000 -0.2780
vn -0.8758 -0.0000 -0.4826
vn -0.2780 -0.0000 -0.9606
vn -0.4826 -0.0000 -0.8758
vn -0.2780 -0.0000 0.9606
vn -0.9606 -0.0000 0.2780
vn 0.7071 -0.0000 -0.7071
vn 1.0000 -0.0000 -0.0000
vn -0.0000 -0.0000 1.0000
vn 0.7071 -0.0000 0.7071
vn 0.2647 0.3055 -0.9146
vn 0.4452 0.3862 -0.8079
vn 0.8079 0.3862 -0.4452
vn 0.9146 0.3055 -0.2647
vn -0.2647 0.3055 0.9146
vn -0.4452 0.3862 0.8079
vn -0.8079 0.3862 0.4452
vn -0.9146 0.3055 0.2647
vn 0.9146 0.3055 0.2647
vn 0.8079 0.3862 0.4452
vn 0.4452 0.3862 0.8079
vn 0.2647 0.3055 0.9146
vn -0.9146 0.3055 -0.2647
vn -0.8079 0.3862 -0.4452
vn -0.4452 0.3862 -0.8079
vn -0.2647 0.3055 -0.9146
vn 0.2545 0.1375 -0.9573
vn 0.3628 0.3180 -0.8759
vn 0.4969 0.1375 -0.8568
vn 0.8759 0.3180 -0.3628
vn 0.9573 0.1375 -0.2545
vn 0.8568 0.1375 -0.4969
vn 0.8568 0.1375 0.4969
vn 0.9573 0.1375 0.2545
vn 0.8759 0.3180 0.3628
vn 0.3628 0.3180 0.8759
vn 0.2545 0.1375 0.9573
vn 0.4969 0.1375 0.8568
vn -0.9573 0.1375 -0.2545
vn -0.8759 0.3180 -0.3628
vn -0.8568 0.1375 -0.4969
vn -0.3628 0.3180 -0.8759
vn -0.2545 0.1375 -0.9573
vn -0.4969 0.1375 -0.8568
vn -0.2545 0.1375 0.9573
vn -0.3628 0.3180 0.8759
vn -0.4969 0.1375 0.8568
vn -0.8759 0.3180 0.3628
vn -0.9573 0.1375 0.2545
vn -0.8568 0.1375 0.4969
vn 0.6433 0.4152 -0.6433
vn 0.6924 0.2029 -0.6924
vn 0.6433 0.4152 0.6433
vn 0.6924 0.2029 0.6924
vn -0.6433 0.4152 -0.6433
vn -0.6924 0.2029 -0.6924
vn -0.6433 0.4152 0.6433
vn -0.6924 0.2029 0.6924
vn 0.9097 0.4152 -0.0000
vn 0.9792 0.2029 -0.0000
vn -0.0000 0.2029 -0.9792
vn -0.0000 0.4152 -0.9097
vn -0.9792 0.2029 -0.0000
vn -0.9097 0.4152 -0.0000
vn -0.0000 0.2029 0.9792
vn -0.0000 0.4152 0.9097
vn 0.2070 0.9562 -0.2070
vn 0.3376 0.8786 -0.3376
vn 0.2070 0.9562 0.2070
vn 0.3376 0.8786 0.3376
vn -0.2070 0.9562 -0.2070
vn -0.3376 0.8786 -0.3376
vn -0.2070 0.9562 0.2070
vn -0.3376 0.8786 0.3376
vn 0.2928 0.9562 -0.0000
vn 0.4775 0.8786 -0.0000
vn -0.0000 0.8786 -0.4775
vn -0.0000 0.9562 -0.2928
vn -0.4775 0.8786 -0.0000
vn -0.2928 0.9562 -0.0000
vn -0.0000 0.8786 0.4775
vn -0.0000 0.9562 0.2928
vn 0.4681 0.7495 -0.4681
vn -0.0000 1.0000 -0.0000
vn 0.6620 0.7495 -0.0000
vn -0.0000 0.7495 -0.6620
vn 0.4681 0.7495 0.4681
vn -0.0000 0.7495 0.6620
vn -0.4681 0.7495 -0.4681
vn -0.6620 0.7495 -0.0000
vn -0.4681 0.7495 0.4681
vn 0.6699 0.3202 -0.6699
vn -0.6699 0.3202 0.6699
vn 0.6699 0.3202 0.6699
vn -0.6699 0.3202 -0.6699
vn 0.2647 -0.3055 -0.9146
vn 0.4452 -0.3862 -0.8079
vn 0.8079 -0.3862 -0.4452
vn 0.9146 -0.3055 -0.2647
vn -0.2647 -0.3055 0.9146
vn -0.4452 -0.3862 0.8079
vn -0.8079 -0.3862 0.4452
vn -0.9146 -0.3055 0.2647
vn 0.9146 -0.3055 0.2647
vn 0.8079 -0.3862 0.4452
vn 0.4452 -0.3862 0.8079
vn 0.2647 -0.3055 0.9146
vn -0.9146 -0.3055 -0.2647
vn -0.8079 -0.3862 -0.4452
vn -0.4452 -0.3862 -0.8079
vn -0.2647 -0.3055 -0.9146
vn 0.2545 -0.1375 -0.9573
vn 0.3628 -0.3180 -0.8759
vn 0.4969 -0.1375 -0.8568
vn 0.8759 -0.3180 -0.3628
vn 0.9573 -0.1375 -0.2545
vn 0.8568 -0.1375 -0.4969
vn 0.8568 -0.1375 0.4969
vn 0.9573 -0.1375 0.2545
vn 0.8759 -0.3180 0.3628
vn 0.3628 -0.3180 0.8759
vn 0.2545 -0.1375 0.9573
vn 0.4969 -0.1375 0.8568
vn -0.9573 -0.1375 -0.2545
vn -0.8759 -0.3180 -0.3628
vn -0.8568 -0.1375 -0.4969
vn -0.3628 -0.3180 -0.8759
vn -0.2545 -0.1375 -0.9573
vn -0.4969 -0.1375 -0.8568
vn -0.2545 -0.1375 0.9573
vn -0.3628 -0.3180 0.8759
vn -0.4969 -0.1375 0.8568
vn -0.8759 -0.3180 0.3628
vn -0.9573 -0.1375 0.2545
vn -0.8568 -0.1375 0.4969
vn 0.6433 -0.4152 -0.6433
vn 0.6924 -0.2029 -0.6924
vn 0.6433 -0.4152 0.6433
vn 0.6924 -0.2029 0.6924
vn -0.6433 -0.4152 -0.6433
vn -0.6924 -0.2029 -0.6924
vn -0.6433 -0.4152 0.6433
vn -0.6924 -0.2029 0.6924
vn 0.9097 -0.4152 -0.0000
vn 0.9792 -0.2029 -0.0000
vn -0.0000 -0.2029 -0.9792
vn -0.0000 -0.4152 -0.9097
vn -0.9792 -0.2029 -0.0000
vn -0.9097 -0.4152 -0.0000
vn -0.0000 -0.2029 0.9792
vn -0.0000 -0.4152 0.9097
vn 0.2070 -0.9562 -0.2070
vn 0.3376 -0.8786 -0.3376
vn 0.2070 -0.9562 0.2070
vn 0.3376 -0.8786 0.3376
vn -0.2070 -0.9562 -0.2070
vn -0.3376 -0.8786 -0.3376
vn -0.2070 -0.9562 0.2070
vn -0.3376 -0.8786 0.3376
vn 0.2928 -0.9562 -0.0000
vn 0.4775 -0.8786 -0.0000
vn -0.0000 -0.8786 -0.4775
vn -0.0000 -0.9562 -0.2928
vn -0.4775 -0.8786 -0.0000
vn -0.2928 -0.9562 -0.0000
vn -0.0000 -0.8786 0.4775
vn -0.0000 -0.9562 0.2928
vn 0.4681 -0.7495 -0.4681
vn -0.0000 -1.0000 -0.0000
vn 0.6620 -0.7495 -0.0000
vn -0.0000 -0.7495 -0.6620
vn 0.4681 -0.7495 0.4681
vn -0.0000 -0.7495 0.6620
vn -0.4681 -0.7495 -0.4681
vn -0.6620 -0.7495 -0.0000
vn -0.4681 -0.7495 0.4681
vn 0.6699 -0.3202 -0.6699
vn -0.6699 -0.3202 0.6699
vn 0.6699 -0.3202 0.6699
vn -0.6699 -0.3202 -0.6699
vt 0.441871 0.398036
vt 0.440226 0.398036
vt 0.440176 0.396681
vt 0.441820 0.396681
vt 0.411375 0.593040
vt 0.440226 0.593040
vt 0.440176 0.594396
vt 0.411325 0.594396
vt 0.441900 0.717658
vt 0.440255 0.717658
vt 0.440255 0.651733
vt 0.441900 0.651733
vt 0.439472 0.386259
vt 0.441117 0.386259
vt 0.441900 0.591553
vt 0.440255 0.591553
vt 0.440255 0.525628
vt 0.441900 0.525628
vt 0.441116 0.730922
vt 0.439472 0.730922
vt 0.440176 0.720500
vt 0.441820 0.720500
vt 0.440226 0.650246
vt 0.441871 0.650246
vt 0.440176 0.648890
vt 0.441820 0.648890
vt 0.411404 0.843763
vt 0.440255 0.843763
vt 0.440226 0.845249
vt 0.411375 0.845249
vt 0.440176 0.846605
vt 0.411325 0.846605
vt 0.411404 0.465448
vt 0.440255 0.465448
vt 0.440226 0.466935
vt 0.411375 0.466935
vt 0.440176 0.468291
vt 0.411325 0.468291
vt 0.441900 0.777837
vt 0.440255 0.777837
vt 0.440226 0.776350
vt 0.441871 0.776350
vt 0.440176 0.774995
vt 0.441820 0.774995
vt 0.440226 0.524141
vt 0.441871 0.524141
vt 0.440176 0.522785
vt 0.441820 0.522785
vt 0.411404 0.717658
vt 0.440226 0.719145
vt 0.411375 0.719145
vt 0.411325 0.720500
vt 0.441900 0.399523
vt 0.440255 0.399523
vt 0.411404 0.591553
vt 0.439472 0.638469
vt 0.441116 0.638469
vt 0.441900 0.843763
vt 0.441900 0.465448
vt 0.439472 0.478712
vt 0.410621 0.478712
vt 0.457039 0.605994
vt 0.454647 0.605994
vt 0.454647 0.511187
vt 0.457039 0.511187
vt 0.443074 0.648890
vt 0.441820 0.846605
vt 0.441871 0.845249
vt 0.443074 0.846605
vt 0.443074 0.396681
vt 0.441820 0.594396
vt 0.441871 0.593040
vt 0.443074 0.594396
vt 0.443074 0.774995
vt 0.441820 0.468291
vt 0.441871 0.466935
vt 0.443074 0.468291
vt 0.443074 0.522785
vt 0.441871 0.719145
vt 0.443074 0.720500
vt 0.411404 0.651733
vt 0.410076 0.651218
vt 0.410398 0.650341
vt 0.411375 0.650246
vt 0.408993 0.650703
vt 0.410032 0.649650
vt 0.411325 0.648890
vt 0.408993 0.844792
vt 0.410076 0.844277
vt 0.410398 0.845154
vt 0.410032 0.845845
vt 0.411325 0.774995
vt 0.411375 0.776350
vt 0.410398 0.776445
vt 0.410032 0.775755
vt 0.411404 0.777837
vt 0.410076 0.777322
vt 0.408993 0.776808
vt 0.408993 0.466478
vt 0.410076 0.465963
vt 0.410398 0.466840
vt 0.410032 0.467530
vt 0.411404 0.525628
vt 0.410076 0.525113
vt 0.410398 0.524236
vt 0.411375 0.524141
vt 0.408993 0.524598
vt 0.410032 0.523546
vt 0.411325 0.522785
vt 0.408993 0.718688
vt 0.410076 0.718173
vt 0.410398 0.719050
vt 0.410032 0.719740
vt 0.411404 0.399523
vt 0.410076 0.399008
vt 0.410398 0.398131
vt 0.411375 0.398036
vt 0.408993 0.398493
vt 0.410032 0.397441
vt 0.411325 0.396681
vt 0.408993 0.592583
vt 0.410076 0.592068
vt 0.410398 0.592945
vt 0.410032 0.593635
vt 0.501057 0.027850
vt 0.489180 0.015973
vt 0.490232 0.015649
vt 0.501381 0.026798
vt 0.409279 0.638501
vt 0.410621 0.638469
vt 0.421195 0.015973
vt 0.409317 0.027850
vt 0.408993 0.026798
vt 0.420142 0.015648
vt 0.409279 0.478680
vt 0.489180 0.107712
vt 0.501057 0.095835
vt 0.501381 0.096887
vt 0.490232 0.108037
vt 0.409279 0.730889
vt 0.410621 0.730922
vt 0.409317 0.095835
vt 0.421195 0.107712
vt 0.420142 0.108037
vt 0.408993 0.096887
vt 0.409279 0.386292
vt 0.410621 0.386259
vt 0.491386 0.031856
vt 0.485174 0.025644
vt 0.485843 0.024027
vt 0.493003 0.031186
vt 0.486499 0.022445
vt 0.494585 0.030531
vt 0.425201 0.025644
vt 0.418989 0.031856
vt 0.417371 0.031186
vt 0.424531 0.024027
vt 0.415789 0.030531
vt 0.423876 0.022445
vt 0.485174 0.098041
vt 0.491386 0.091829
vt 0.493003 0.092499
vt 0.485843 0.099658
vt 0.494585 0.093154
vt 0.486499 0.101240
vt 0.418989 0.091829
vt 0.425201 0.098041
vt 0.424531 0.099658
vt 0.417371 0.092499
vt 0.423876 0.101240
vt 0.415789 0.093154
vt 0.483517 0.029643
vt 0.455187 0.061843
vt 0.422988 0.033513
vt 0.426857 0.029643
vt 0.454647 0.732099
vt 0.454647 0.637291
vt 0.442291 0.858204
vt 0.441116 0.857026
vt 0.454647 0.858204
vt 0.454647 0.763396
vt 0.454647 0.479890
vt 0.454647 0.385082
vt 0.442291 0.605994
vt 0.441116 0.604817
vt 0.442291 0.479890
vt 0.441117 0.478712
vt 0.442291 0.732099
vt 0.457039 0.732099
vt 0.457039 0.637291
vt 0.457039 0.858204
vt 0.457039 0.763396
vt 0.457039 0.479890
vt 0.457039 0.385082
vt 0.487387 0.033513
vt 0.483517 0.094042
vt 0.487387 0.090172
vt 0.422988 0.090172
vt 0.426857 0.094042
s 0
usemtl Material
f 68/1/1 9/2/1 8/3/1 66/4/1
f 143/5/2 6/6/2 5/7/2 140/8/2
f 86/9/3 13/10/3 32/11/3 57/12/3
f 66/4/4 8/3/4 5/13/4 69/14/4
f 70/15/5 7/16/5 17/17/5 81/18/5
f 82/19/6 14/20/6 11/21/6 85/22/6
f 57/12/7 32/11/7 31/23/7 60/24/7
f 60/24/8 31/23/8 30/25/8 58/26/8
f 97/27/9 29/28/9 28/29/9 101/30/9
f 101/30/10 28/29/10 27/31/10 98/32/10
f 111/33/11 26/34/11 25/35/11 115/36/11
f 115/36/12 25/35/12 23/37/12 112/38/12
f 73/39/13 22/40/13 20/41/13 76/42/13
f 76/42/14 20/41/14 19/43/14 74/44/14
f 81/18/15 17/17/15 16/45/15 84/46/15
f 84/46/16 16/45/16 14/47/16 82/48/16
f 125/49/17 13/10/17 12/50/17 129/51/17
f 129/51/18 12/50/18 11/21/18 126/52/18
f 65/53/19 10/54/19 9/2/19 68/1/19
f 139/55/20 7/16/20 6/6/20 143/5/20
f 58/26/21 30/25/21 27/56/21 61/57/21
f 62/58/22 29/28/22 22/40/22 73/39/22
f 78/59/23 26/34/23 10/54/23 65/53/23
f 112/38/24 23/37/24 19/60/24 103/61/24
f 2/62/5 18/63/5 24/64/5 4/65/5
f 57/12/25 60/24/25 59/66/25
f 60/24/26 58/26/26 59/66/26
f 61/67/27 64/68/27 63/69/27
f 64/68/28 62/58/28 63/69/28
f 65/53/29 68/1/29 67/70/29
f 68/1/30 66/4/30 67/70/30
f 69/71/31 72/72/31 71/73/31
f 72/72/32 70/15/32 71/73/32
f 73/39/33 76/42/33 75/74/33
f 76/42/34 74/44/34 75/74/34
f 77/75/35 80/76/35 79/77/35
f 80/76/36 78/59/36 79/77/36
f 81/18/37 84/46/37 83/78/37
f 84/46/38 82/48/38 83/78/38
f 85/22/39 88/79/39 87/80/39
f 88/79/40 86/9/40 87/80/40
f 89/81/41 92/82/41 93/83/41 95/84/41
f 90/85/42 94/86/42 93/83/42 92/82/42
f 91/87/43 95/84/43 93/83/43 94/86/43
f 96/88/44 99/89/44 100/90/44 102/91/44
f 97/27/45 101/30/45 100/90/45 99/89/45
f 98/32/46 102/91/46 100/90/46 101/30/46
f 103/92/47 106/93/47 107/94/47 109/95/47
f 104/96/48 108/97/48 107/94/48 106/93/48
f 105/98/49 109/95/49 107/94/49 108/97/49
f 110/99/50 113/100/50 114/101/50 116/102/50
f 111/33/51 115/36/51 114/101/51 113/100/51
f 112/38/52 116/102/52 114/101/52 115/36/52
f 117/103/53 120/104/53 121/105/53 123/106/53
f 118/107/54 122/108/54 121/105/54 120/104/54
f 119/109/55 123/106/55 121/105/55 122/108/55
f 124/110/56 127/111/56 128/112/56 130/113/56
f 125/49/57 129/51/57 128/112/57 127/111/57
f 126/52/58 130/113/58 128/112/58 129/51/58
f 131/114/59 134/115/59 135/116/59 137/117/59
f 132/118/60 136/119/60 135/116/60 134/115/60
f 133/120/61 137/117/61 135/116/61 136/119/61
f 138/121/62 141/122/62 142/123/62 144/124/62
f 139/55/63 143/5/63 142/123/63 141/122/63
f 140/8/64 144/124/64 142/123/64 143/5/64
f 32/11/7 89/81/7 95/84/7 31/23/7
f 31/23/8 95/84/8 91/87/8 30/25/8
f 90/125/65 96/126/65 102/127/65 94/128/65
f 94/86/66 102/129/66 98/130/66 91/87/66
f 29/28/9 62/58/9 64/68/9 28/29/9
f 28/29/10 64/68/10 61/67/10 27/31/10
f 105/131/67 110/132/67 116/133/67 109/134/67
f 109/135/68 116/102/68 112/38/68 103/61/68
f 26/34/11 78/59/11 80/76/11 25/35/11
f 25/35/12 80/76/12 77/75/12 23/37/12
f 22/40/13 104/96/13 106/93/13 20/41/13
f 20/41/14 106/93/14 103/92/14 19/43/14
f 17/17/15 117/103/15 123/106/15 16/45/15
f 16/45/16 123/106/16 119/109/16 14/47/16
f 118/136/69 124/137/69 130/138/69 122/139/69
f 122/140/70 130/113/70 126/52/70 119/141/70
f 13/10/17 86/9/17 88/79/17 12/50/17
f 12/50/18 88/79/18 85/22/18 11/21/18
f 10/54/19 131/114/19 137/117/19 9/2/19
f 9/2/1 137/117/1 133/120/1 8/3/1
f 132/142/71 138/143/71 144/144/71 136/145/71
f 136/119/72 144/146/72 140/147/72 133/120/72
f 7/16/20 70/15/20 72/72/20 6/6/20
f 6/6/2 72/72/2 69/71/2 5/7/2
f 96/88/73 105/98/73 108/97/73 99/89/73
f 99/89/74 108/97/74 104/96/74 97/27/74
f 89/81/75 125/49/75 127/111/75 92/82/75
f 92/82/76 127/111/76 124/110/76 90/85/76
f 117/103/77 139/55/77 141/122/77 120/104/77
f 120/104/78 141/122/78 138/121/78 118/107/78
f 131/114/79 111/33/79 113/100/79 134/115/79
f 134/115/80 113/100/80 110/99/80 132/118/80
f 145/148/81 146/149/81 35/150/81 38/151/81
f 38/151/82 35/150/82 34/152/82 36/153/82
f 147/154/83 148/155/83 41/156/83 44/157/83
f 44/157/84 41/156/84 40/158/84 42/159/84
f 149/160/85 150/161/85 47/162/85 50/163/85
f 50/163/86 47/162/86 46/164/86 48/165/86
f 151/166/87 152/167/87 53/168/87 56/169/87
f 56/169/88 53/168/88 52/170/88 54/171/88
f 146/149/89 147/154/89 44/157/89 35/150/89
f 35/150/90 44/157/90 42/159/90 34/152/90
f 36/153/91 46/164/91 47/162/91 38/151/91
f 38/151/92 47/162/92 150/161/92 145/148/92
f 48/165/93 52/170/93 53/168/93 50/163/93
f 50/163/94 53/168/94 152/167/94 149/160/94
f 54/171/95 40/158/95 41/156/95 56/169/95
f 56/169/96 41/156/96 148/155/96 151/166/96
f 36/153/97 34/152/97 96/126/97 90/125/97
f 33/172/98 153/173/98 39/174/98 43/175/98
f 34/152/99 42/159/99 105/131/99 96/126/99
f 46/164/100 36/153/100 90/125/100 124/137/100
f 42/159/101 40/158/101 110/132/101 105/131/101
f 40/158/102 54/171/102 132/142/102 110/132/102
f 48/165/103 46/164/103 124/137/103 118/136/103
f 52/170/104 48/165/104 118/136/104 138/143/104
f 54/171/105 52/170/105 138/143/105 132/142/105
f 24/176/3 87/80/3 86/9/3 57/12/3 59/66/3 15/177/3
f 59/178/106 58/179/106 61/67/106 63/69/106 15/180/106
f 30/25/21 91/87/21 98/130/21 27/56/21
f 13/10/3 125/49/3 89/81/3 32/11/3
f 29/28/22 97/27/22 104/96/22 22/40/22
f 15/180/22 63/69/22 62/58/22 73/39/22 75/74/22 21/181/22
f 21/182/23 79/77/23 78/59/23 65/53/23 67/70/23 18/183/23
f 67/184/107 66/185/107 69/71/107 71/73/107 18/63/107
f 8/3/4 133/120/4 140/147/4 5/13/4
f 26/34/23 111/33/23 131/114/23 10/54/23
f 7/16/5 139/55/5 117/103/5 17/17/5
f 18/63/5 71/73/5 70/15/5 81/18/5 83/78/5 24/64/5
f 75/186/108 74/187/108 77/75/108 79/77/108 21/182/108
f 23/37/24 77/75/24 74/187/24 19/60/24
f 83/188/109 82/19/109 85/22/109 87/80/109 24/176/109
f 14/20/6 119/141/6 126/52/6 11/21/6
f 4/189/3 24/176/3 15/177/3 1/190/3
f 1/191/22 15/180/22 21/181/22 3/192/22
f 3/193/23 21/182/23 18/183/23 2/194/23
f 37/195/98 33/172/98 146/149/98 145/148/98
f 43/175/98 39/174/98 148/155/98 147/154/98
f 49/196/98 45/197/98 150/161/98 149/160/98
f 55/198/98 51/199/98 152/167/98 151/166/98
f 33/172/98 43/175/98 147/154/98 146/149/98
f 45/197/98 37/195/98 145/148/98 150/161/98
f 51/199/98 49/196/98 149/160/98 152/167/98
f 39/174/98 55/198/98 151/166/98 148/155/98
f 153/173/98 51/199/98 55/198/98 39/174/98
f 37/195/98 45/197/98 153/173/98 33/172/98
f 45/197/98 49/196/98 51/199/98 153/173/98
f 221/1/12 219/4/12 161/3/12 162/2/12
f 296/5/14 293/8/14 158/7/14 159/6/14
f 239/9/3 210/12/3 185/11/3 166/10/3
f 219/4/24 222/14/24 158/13/24 161/3/24
f 223/15/22 234/18/22 170/17/22 160/16/22
f 235/19/21 238/22/21 164/21/21 167/20/21
f 210/12/17 213/24/17 184/23/17 185/11/17
f 213/24/18 211/26/18 183/25/18 184/23/18
f 250/27/15 254/30/15 181/29/15 182/28/15
f 254/30/16 251/32/16 180/31/16 181/29/16
f 264/33/19 268/36/19 178/35/19 179/34/19
f 268/36/1 265/38/1 176/37/1 178/35/1
f 226/39/20 229/42/20 173/41/20 175/40/20
f 229/42/2 227/44/2 172/43/2 173/41/2
f 234/18/9 237/46/9 169/45/9 170/17/9
f 237/46/10 235/48/10 167/47/10 169/45/10
f 278/49/7 282/51/7 165/50/7 166/10/7
f 282/51/8 279/52/8 164/21/8 165/50/8
f 218/53/11 221/1/11 162/2/11 163/54/11
f 292/55/13 296/5/13 159/6/13 160/16/13
f 211/26/6 214/57/6 180/56/6 183/25/6
f 215/58/5 226/39/5 175/40/5 182/28/5
f 231/59/23 218/53/23 163/54/23 179/34/23
f 265/38/4 256/61/4 172/60/4 176/37/4
f 155/62/22 157/65/22 177/64/22 171/63/22
f 210/12/40 212/66/40 213/24/40
f 213/24/39 212/66/39 211/26/39
f 214/67/38 216/69/38 217/68/38
f 217/68/37 216/69/37 215/58/37
f 218/53/36 220/70/36 221/1/36
f 221/1/35 220/70/35 219/4/35
f 222/71/34 224/73/34 225/72/34
f 225/72/33 224/73/33 223/15/33
f 226/39/32 228/74/32 229/42/32
f 229/42/31 228/74/31 227/44/31
f 230/75/30 232/77/30 233/76/30
f 233/76/29 232/77/29 231/59/29
f 234/18/28 236/78/28 237/46/28
f 237/46/27 236/78/27 235/48/27
f 238/22/26 240/80/26 241/79/26
f 241/79/25 240/80/25 239/9/25
f 242/81/57 248/84/57 246/83/57 245/82/57
f 243/85/56 245/82/56 246/83/56 247/86/56
f 244/87/58 247/86/58 246/83/58 248/84/58
f 249/88/54 255/91/54 253/90/54 252/89/54
f 250/27/53 252/89/53 253/90/53 254/30/53
f 251/32/55 254/30/55 253/90/55 255/91/55
f 256/92/64 262/95/64 260/94/64 259/93/64
f 257/96/63 259/93/63 260/94/63 261/97/63
f 258/98/62 261/97/62 260/94/62 262/95/62
f 263/99/60 269/102/60 267/101/60 266/100/60
f 264/33/59 266/100/59 267/101/59 268/36/59
f 265/38/61 268/36/61 267/101/61 269/102/61
f 270/103/45 276/106/45 274/105/45 273/104/45
f 271/107/44 273/104/44 274/105/44 275/108/44
f 272/109/46 275/108/46 274/105/46 276/106/46
f 277/110/42 283/113/42 281/112/42 280/111/42
f 278/49/41 280/111/41 281/112/41 282/51/41
f 279/52/43 282/51/43 281/112/43 283/113/43
f 284/114/51 290/117/51 288/116/51 287/115/51
f 285/118/50 287/115/50 288/116/50 289/119/50
f 286/120/52 289/119/52 288/116/52 290/117/52
f 291/121/49 297/124/49 295/123/49 294/122/49
f 292/55/48 294/122/48 295/123/48 296/5/48
f 293/8/47 296/5/47 295/123/47 297/124/47
f 185/11/17 184/23/17 248/84/17 242/81/17
f 184/23/18 183/25/18 244/87/18 248/84/18
f 243/125/69 247/128/69 255/127/69 249/126/69
f 247/86/70 244/87/70 251/130/70 255/129/70
f 182/28/15 181/29/15 217/68/15 215/58/15
f 181/29/16 180/31/16 214/67/16 217/68/16
f 258/131/71 262/134/71 269/133/71 263/132/71
f 262/135/72 256/61/72 265/38/72 269/102/72
f 179/34/19 178/35/19 233/76/19 231/59/19
f 178/35/1 176/37/1 230/75/1 233/76/1
f 175/40/20 173/41/20 259/93/20 257/96/20
f 173/41/2 172/43/2 256/92/2 259/93/2
f 170/17/9 169/45/9 276/106/9 270/103/9
f 169/45/10 167/47/10 272/109/10 276/106/10
f 271/136/65 275/139/65 283/138/65 277/137/65
f 275/140/66 272/141/66 279/52/66 283/113/66
f 166/10/7 165/50/7 241/79/7 239/9/7
f 165/50/8 164/21/8 238/22/8 241/79/8
f 163/54/11 162/2/11 290/117/11 284/114/11
f 162/2/12 161/3/12 286/120/12 290/117/12
f 285/142/67 289/145/67 297/144/67 291/143/67
f 289/119/68 286/120/68 293/147/68 297/146/68
f 160/16/13 159/6/13 225/72/13 223/15/13
f 159/6/14 158/7/14 222/71/14 225/72/14
f 249/88/78 252/89/78 261/97/78 258/98/78
f 252/89/77 250/27/77 257/96/77 261/97/77
f 242/81/75 245/82/75 280/111/75 278/49/75
f 245/82/76 243/85/76 277/110/76 280/111/76
f 270/103/74 273/104/74 294/122/74 292/55/74
f 273/104/73 271/107/73 291/121/73 294/122/73
f 284/114/79 287/115/79 266/100/79 264/33/79
f 287/115/80 285/118/80 263/99/80 266/100/80
f 298/148/85 191/151/85 188/150/85 299/149/85
f 191/151/86 189/153/86 187/152/86 188/150/86
f 300/154/87 197/157/87 194/156/87 301/155/87
f 197/157/88 195/159/88 193/158/88 194/156/88
f 302/160/81 203/163/81 200/162/81 303/161/81
f 203/163/82 201/165/82 199/164/82 200/162/82
f 304/166/83 209/169/83 206/168/83 305/167/83
f 209/169/84 207/171/84 205/170/84 206/168/84
f 299/149/94 188/150/94 197/157/94 300/154/94
f 188/150/93 187/152/93 195/159/93 197/157/93
f 189/153/91 191/151/91 200/162/91 199/164/91
f 191/151/92 298/148/92 303/161/92 200/162/92
f 201/165/90 203/163/90 206/168/90 205/170/90
f 203/163/89 302/160/89 305/167/89 206/168/89
f 207/171/95 209/169/95 194/156/95 193/158/95
f 209/169/96 304/166/96 301/155/96 194/156/96
f 189/153/103 243/125/103 249/126/103 187/152/103
f 186/172/98 196/175/98 192/174/98 153/173/98
f 187/152/104 249/126/104 258/131/104 195/159/104
f 199/164/100 277/137/100 243/125/100 189/153/100
f 195/159/105 258/131/105 263/132/105 193/158/105
f 193/158/102 263/132/102 285/142/102 207/171/102
f 201/165/97 271/136/97 277/137/97 199/164/97
f 205/170/99 291/143/99 271/136/99 201/165/99
f 207/171/101 285/142/101 291/143/101 205/170/101
f 177/176/3 168/177/3 212/66/3 210/12/3 239/9/3 240/80/3
f 212/178/109 168/180/109 216/69/109 214/67/109 211/179/109
f 183/25/6 180/56/6 251/130/6 244/87/6
f 166/10/3 185/11/3 242/81/3 278/49/3
f 182/28/5 175/40/5 257/96/5 250/27/5
f 168/180/5 174/181/5 228/74/5 226/39/5 215/58/5 216/69/5
f 174/182/23 171/183/23 220/70/23 218/53/23 231/59/23 232/77/23
f 220/184/108 171/63/108 224/73/108 222/71/108 219/185/108
f 161/3/24 158/13/24 293/147/24 286/120/24
f 179/34/23 163/54/23 284/114/23 264/33/23
f 160/16/22 170/17/22 270/103/22 292/55/22
f 171/63/22 177/64/22 236/78/22 234/18/22 223/15/22 224/73/22
f 228/186/107 174/182/107 232/77/107 230/75/107 227/187/107
f 176/37/4 172/60/4 227/187/4 230/75/4
f 236/188/106 177/176/106 240/80/106 238/22/106 235/19/106
f 167/20/21 164/21/21 279/52/21 272/141/21
f 157/189/3 154/190/3 168/177/3 177/176/3
f 154/191/5 156/192/5 174/181/5 168/180/5
f 156/193/23 155/194/23 171/183/23 174/182/23
f 190/195/98 298/148/98 299/149/98 186/172/98
f 196/175/98 300/154/98 301/155/98 192/174/98
f 202/196/98 302/160/98 303/161/98 198/197/98
f 208/198/98 304/166/98 305/167/98 204/199/98
f 186/172/98 299/149/98 300/154/98 196/175/98
f 198/197/98 303/161/98 298/148/98 190/195/98
f 204/199/98 305/167/98 302/160/98 202/196/98
f 192/174/98 301/155/98 304/166/98 208/198/98
f 153/173/98 192/174/98 208/198/98 204/199/98
f 190/195/98 186/172/98 153/173/98 198/197/98
f 198/197/98 153/173/98 204/199/98 202/196/98
f 369/1/1 367/4/1 309/3/1 310/2/1
f 444/5/2 441/8/2 306/7/2 307/6/2
f 387/9/3 358/12/3 333/11/3 314/10/3
f 367/4/4 370/14/4 306/13/4 309/3/4
f 371/15/5 382/18/5 318/17/5 308/16/5
f 383/19/6 386/22/6 312/21/6 315/20/6
f 358/12/7 361/24/7 332/23/7 333/11/7
f 361/24/8 359/26/8 331/25/8 332/23/8
f 398/27/9 402/30/9 329/29/9 330/28/9
f 402/30/10 399/32/10 328/31/10 329/29/10
f 412/33/11 416/36/11 326/35/11 327/34/11
f 416/36/12 413/38/12 324/37/12 326/35/12
f 374/39/13 377/42/13 321/41/13 323/40/13
f 377/42/14 375/44/14 320/43/14 321/41/14
f 382/18/15 385/46/15 317/45/15 318/17/15
f 385/46/16 383/48/16 315/47/16 317/45/16
f 426/49/17 430/51/17 313/50/17 314/10/17
f 430/51/18 427/52/18 312/21/18 313/50/18
f 366/53/19 369/1/19 310/2/19 311/54/19
f 440/55/20 444/5/20 307/6/20 308/16/20
f 359/26/21 362/57/21 328/56/21 331/25/21
f 363/58/22 374/39/22 323/40/22 330/28/22
f 379/59/23 366/53/23 311/54/23 327/34/23
f 413/38/24 404/61/24 320/60/24 324/37/24
f 2/62/5 4/65/5 325/64/5 319/63/5
f 358/12/110 360/66/110 361/24/110
f 361/24/111 360/66/111 359/26/111
f 362/67/112 364/69/112 365/68/112
f 365/68/113 364/69/113 363/58/113
f 366/53/114 368/70/114 369/1/114
f 369/1/115 368/70/115 367/4/115
f 370/71/116 372/73/116 373/72/116
f 373/72/117 372/73/117 371/15/117
f 374/39/118 376/74/118 377/42/118
f 377/42/119 376/74/119 375/44/119
f 378/75/120 380/77/120 381/76/120
f 381/76/121 380/77/121 379/59/121
f 382/18/122 384/78/122 385/46/122
f 385/46/123 384/78/123 383/48/123
f 386/22/124 388/80/124 389/79/124
f 389/79/125 388/80/125 387/9/125
f 390/81/126 396/84/126 394/83/126 393/82/126
f 391/85/127 393/82/127 394/83/127 395/86/127
f 392/87/128 395/86/128 394/83/128 396/84/128
f 397/88/129 403/91/129 401/90/129 400/89/129
f 398/27/130 400/89/130 401/90/130 402/30/130
f 399/32/131 402/30/131 401/90/131 403/91/131
f 404/92/132 410/95/132 408/94/132 407/93/132
f 405/96/133 407/93/133 408/94/133 409/97/133
f 406/98/134 409/97/134 408/94/134 410/95/134
f 411/99/135 417/102/135 415/101/135 414/100/135
f 412/33/136 414/100/136 415/101/136 416/36/136
f 413/38/137 416/36/137 415/101/137 417/102/137
f 418/103/138 424/106/138 422/105/138 421/104/138
f 419/107/139 421/104/139 422/105/139 423/108/139
f 420/109/140 423/108/140 422/105/140 424/106/140
f 425/110/141 431/113/141 429/112/141 428/111/141
f 426/49/142 428/111/142 429/112/142 430/51/142
f 427/52/143 430/51/143 429/112/143 431/113/143
f 432/114/144 438/117/144 436/116/144 435/115/144
f 433/118/145 435/115/145 436/116/145 437/119/145
f 434/120/146 437/119/146 436/116/146 438/117/146
f 439/121/147 445/124/147 443/123/147 442/122/147
f 440/55/148 442/122/148 443/123/148 444/5/148
f 441/8/149 444/5/149 443/123/149 445/124/149
f 333/11/7 332/23/7 396/84/7 390/81/7
f 332/23/8 331/25/8 392/87/8 396/84/8
f 391/125/150 395/128/150 403/127/150 397/126/150
f 395/86/151 392/87/151 399/130/151 403/129/151
f 330/28/9 329/29/9 365/68/9 363/58/9
f 329/29/10 328/31/10 362/67/10 365/68/10
f 406/131/152 410/134/152 417/133/152 411/132/152
f 410/135/153 404/61/153 413/38/153 417/102/153
f 327/34/11 326/35/11 381/76/11 379/59/11
f 326/35/12 324/37/12 378/75/12 381/76/12
f 323/40/13 321/41/13 407/93/13 405/96/13
f 321/41/14 320/43/14 404/92/14 407/93/14
f 318/17/15 317/45/15 424/106/15 418/103/15
f 317/45/16 315/47/16 420/109/16 424/106/16
f 419/136/154 423/139/154 431/138/154 425/137/154
f 423/140/155 420/141/155 427/52/155 431/113/155
f 314/10/17 313/50/17 389/79/17 387/9/17
f 313/50/18 312/21/18 386/22/18 389/79/18
f 311/54/19 310/2/19 438/117/19 432/114/19
f 310/2/1 309/3/1 434/120/1 438/117/1
f 433/142/156 437/145/156 445/144/156 439/143/156
f 437/119/157 434/120/157 441/147/157 445/146/157
f 308/16/20 307/6/20 373/72/20 371/15/20
f 307/6/2 306/7/2 370/71/2 373/72/2
f 397/88/158 400/89/158 409/97/158 406/98/158
f 400/89/159 398/27/159 405/96/159 409/97/159
f 390/81/160 393/82/160 428/111/160 426/49/160
f 393/82/161 391/85/161 425/110/161 428/111/161
f 418/103/162 421/104/162 442/122/162 440/55/162
f 421/104/163 419/107/163 439/121/163 442/122/163
f 432/114/164 435/115/164 414/100/164 412/33/164
f 435/115/165 433/118/165 411/99/165 414/100/165
f 446/148/166 339/151/166 336/150/166 447/149/166
f 339/151/167 337/153/167 335/152/167 336/150/167
f 448/154/168 345/157/168 342/156/168 449/155/168
f 345/157/169 343/159/169 341/158/169 342/156/169
f 450/160/170 351/163/170 348/162/170 451/161/170
f 351/163/171 349/165/171 347/164/171 348/162/171
f 452/166/172 357/169/172 354/168/172 453/167/172
f 357/169/173 355/171/173 353/170/173 354/168/173
f 447/149/174 336/150/174 345/157/174 448/154/174
f 336/150/175 335/152/175 343/159/175 345/157/175
f 337/153/176 339/151/176 348/162/176 347/164/176
f 339/151/177 446/148/177 451/161/177 348/162/177
f 349/165/178 351/163/178 354/168/178 353/170/178
f 351/163/179 450/160/179 453/167/179 354/168/179
f 355/171/180 357/169/180 342/156/180 341/158/180
f 357/169/181 452/166/181 449/155/181 342/156/181
f 337/153/182 391/125/182 397/126/182 335/152/182
f 334/172/183 344/175/183 340/174/183 454/173/183
f 335/152/184 397/126/184 406/131/184 343/159/184
f 347/164/185 425/137/185 391/125/185 337/153/185
f 343/159/186 406/131/186 411/132/186 341/158/186
f 341/158/187 411/132/187 433/142/187 355/171/187
f 349/165/188 419/136/188 425/137/188 347/164/188
f 353/170/189 439/143/189 419/136/189 349/165/189
f 355/171/190 433/142/190 439/143/190 353/170/190
f 325/176/3 316/177/3 360/66/3 358/12/3 387/9/3 388/80/3
f 360/178/191 316/180/191 364/69/191 362/67/191 359/179/191
f 331/25/21 328/56/21 399/130/21 392/87/21
f 314/10/3 333/11/3 390/81/3 426/49/3
f 330/28/22 323/40/22 405/96/22 398/27/22
f 316/180/22 322/181/22 376/74/22 374/39/22 363/58/22 364/69/22
f 322/182/23 319/183/23 368/70/23 366/53/23 379/59/23 380/77/23
f 368/184/192 319/63/192 372/73/192 370/71/192 367/185/192
f 309/3/4 306/13/4 441/147/4 434/120/4
f 327/34/23 311/54/23 432/114/23 412/33/23
f 308/16/5 318/17/5 418/103/5 440/55/5
f 319/63/5 325/64/5 384/78/5 382/18/5 371/15/5 372/73/5
f 376/186/193 322/182/193 380/77/193 378/75/193 375/187/193
f 324/37/24 320/60/24 375/187/24 378/75/24
f 384/188/194 325/176/194 388/80/194 386/22/194 383/19/194
f 315/20/6 312/21/6 427/52/6 420/141/6
f 4/189/3 1/190/3 316/177/3 325/176/3
f 1/191/22 3/192/22 322/181/22 316/180/22
f 3/193/23 2/194/23 319/183/23 322/182/23
f 338/195/183 446/148/183 447/149/183 334/172/183
f 344/175/183 448/154/183 449/155/183 340/174/183
f 350/196/183 450/160/183 451/161/183 346/197/183
f 356/198/183 452/166/183 453/167/183 352/199/183
f 334/172/183 447/149/183 448/154/183 344/175/183
f 346/197/183 451/161/183 446/148/183 338/195/183
f 352/199/183 453/167/183 450/160/183 350/196/183
f 340/174/183 449/155/183 452/166/183 356/198/183
f 454/173/183 340/174/183 356/198/183 352/199/183
f 338/195/183 334/172/183 454/173/183 346/197/183
f 346/197/183 454/173/183 352/199/183 350/196/183
f 518/1/12 459/2/12 458/3/12 516/4/12
f 593/5/14 456/6/14 455/7/14 590/8/14
f 536/9/3 463/10/3 482/11/3 507/12/3
f 516/4/24 458/3/24 455/13/24 519/14/24
f 520/15/22 457/16/22 467/17/22 531/18/22
f 532/19/21 464/20/21 461/21/21 535/22/21
f 507/12/17 482/11/17 481/23/17 510/24/17
f 510/24/18 481/23/18 480/25/18 508/26/18
f 547/27/15 479/28/15 478/29/15 551/30/15
f 551/30/16 478/29/16 477/31/16 548/32/16
f 561/33/19 476/34/19 475/35/19 565/36/19
f 565/36/1 475/35/1 473/37/1 562/38/1
f 523/39/20 472/40/20 470/41/20 526/42/20
f 526/42/2 470/41/2 469/43/2 524/44/2
f 531/18/9 467/17/9 466/45/9 534/46/9
f 534/46/10 466/45/10 464/47/10 532/48/10
f 575/49/7 463/10/7 462/50/7 579/51/7
f 579/51/8 462/50/8 461/21/8 576/52/8
f 515/53/11 460/54/11 459/2/11 518/1/11
f 589/55/13 457/16/13 456/6/13 593/5/13
f 508/26/6 480/25/6 477/56/6 511/57/6
f 512/58/5 479/28/5 472/40/5 523/39/5
f 528/59/23 476/34/23 460/54/23 515/53/23
f 562/38/4 473/37/4 469/60/4 553/61/4
f 155/62/22 468/63/22 474/64/22 157/65/22
f 507/12/125 510/24/125 509/66/125
f 510/24/124 508/26/124 509/66/124
f 511/67/123 514/68/123 513/69/123
f 514/68/122 512/58/122 513/69/122
f 515/53/121 518/1/121 517/70/121
f 518/1/120 516/4/120 517/70/120
f 519/71/119 522/72/119 521/73/119
f 522/72/118 520/15/118 521/73/118
f 523/39/117 526/42/117 525/74/117
f 526/42/116 524/44/116 525/74/116
f 527/75/115 530/76/115 529/77/115
f 530/76/114 528/59/114 529/77/114
f 531/18/113 534/46/113 533/78/113
f 534/46/112 532/48/112 533/78/112
f 535/22/111 538/79/111 537/80/111
f 538/79/110 536/9/110 537/80/110
f 539/81/142 542/82/142 543/83/142 545/84/142
f 540/85/141 544/86/141 543/83/141 542/82/141
f 541/87/143 545/84/143 543/83/143 544/86/143
f 546/88/139 549/89/139 550/90/139 552/91/139
f 547/27/138 551/30/138 550/90/138 549/89/138
f 548/32/140 552/91/140 550/90/140 551/30/140
f 553/92/149 556/93/149 557/94/149 559/95/149
f 554/96/148 558/97/148 557/94/148 556/93/148
f 555/98/147 559/95/147 557/94/147 558/97/147
f 560/99/145 563/100/145 564/101/145 566/102/145
f 561/33/144 565/36/144 564/101/144 563/100/144
f 562/38/146 566/102/146 564/101/146 565/36/146
f 567/103/130 570/104/130 571/105/130 573/106/130
f 568/107/129 572/108/129 571/105/129 570/104/129
f 569/109/131 573/106/131 571/105/131 572/108/131
f 574/110/127 577/111/127 578/112/127 580/113/127
f 575/49/126 579/51/126 578/112/126 577/111/126
f 576/52/128 580/113/128 578/112/128 579/51/128
f 581/114/136 584/115/136 585/116/136 587/117/136
f 582/118/135 586/119/135 585/116/135 584/115/135
f 583/120/137 587/117/137 585/116/137 586/119/137
f 588/121/134 591/122/134 592/123/134 594/124/134
f 589/55/133 593/5/133 592/123/133 591/122/133
f 590/8/132 594/124/132 592/123/132 593/5/132
f 482/11/17 539/81/17 545/84/17 481/23/17
f 481/23/18 545/84/18 541/87/18 480/25/18
f 540/125/154 546/126/154 552/127/154 544/128/154
f 544/86/155 552/129/155 548/130/155 541/87/155
f 479/28/15 512/58/15 514/68/15 478/29/15
f 478/29/16 514/68/16 511/67/16 477/31/16
f 555/131/156 560/132/156 566/133/156 559/134/156
f 559/135/157 566/102/157 562/38/157 553/61/157
f 476/34/19 528/59/19 530/76/19 475/35/19
f 475/35/1 530/76/1 527/75/1 473/37/1
f 472/40/20 554/96/20 556/93/20 470/41/20
f 470/41/2 556/93/2 553/92/2 469/43/2
f 467/17/9 567/103/9 573/106/9 466/45/9
f 466/45/10 573/106/10 569/109/10 464/47/10
f 568/136/150 574/137/150 580/138/150 572/139/150
f 572/140/151 580/113/151 576/52/151 569/141/151
f 463/10/7 536/9/7 538/79/7 462/50/7
f 462/50/8 538/79/8 535/22/8 461/21/8
f 460/54/11 581/114/11 587/117/11 459/2/11
f 459/2/12 587/117/12 583/120/12 458/3/12
f 582/142/152 588/143/152 594/144/152 586/145/152
f 586/119/153 594/146/153 590/147/153 583/120/153
f 457/16/13 520/15/13 522/72/13 456/6/13
f 456/6/14 522/72/14 519/71/14 455/7/14
f 546/88/163 555/98/163 558/97/163 549/89/163
f 549/89/162 558/97/162 554/96/162 547/27/162
f 539/81/160 575/49/160 577/111/160 542/82/160
f 542/82/161 577/111/161 574/110/161 540/85/161
f 567/103/159 589/55/159 591/122/159 570/104/159
f 570/104/158 591/122/158 588/121/158 568/107/158
f 581/114/164 561/33/164 563/100/164 584/115/164
f 584/115/165 563/100/165 560/99/165 582/118/165
f 595/148/170 596/149/170 485/150/170 488/151/170
f 488/151/171 485/150/171 484/152/171 486/153/171
f 597/154/172 598/155/172 491/156/172 494/157/172
f 494/157/173 491/156/173 490/158/173 492/159/173
f 599/160/166 600/161/166 497/162/166 500/163/166
f 500/163/167 497/162/167 496/164/167 498/165/167
f 601/166/168 602/167/168 503/168/168 506/169/168
f 506/169/169 503/168/169 502/170/169 504/171/169
f 596/149/179 597/154/179 494/157/179 485/150/179
f 485/150/178 494/157/178 492/159/178 484/152/178
f 486/153/176 496/164/176 497/162/176 488/151/176
f 488/151/177 497/162/177 600/161/177 595/148/177
f 498/165/175 502/170/175 503/168/175 500/163/175
f 500/163/174 503/168/174 602/167/174 599/160/174
f 504/171/180 490/158/180 491/156/180 506/169/180
f 506/169/181 491/156/181 598/155/181 601/166/181
f 486/153/188 484/152/188 546/126/188 540/125/188
f 483/172/183 454/173/183 489/174/183 493/175/183
f 484/152/189 492/159/189 555/131/189 546/126/189
f 496/164/185 486/153/185 540/125/185 574/137/185
f 492/159/190 490/158/190 560/132/190 555/131/190
f 490/158/187 504/171/187 582/142/187 560/132/187
f 498/165/182 496/164/182 574/137/182 568/136/182
f 502/170/184 498/165/184 568/136/184 588/143/184
f 504/171/186 502/170/186 588/143/186 582/142/186
f 474/176/3 537/80/3 536/9/3 507/12/3 509/66/3 465/177/3
f 509/178/194 508/179/194 511/67/194 513/69/194 465/180/194
f 480/25/6 541/87/6 548/130/6 477/56/6
f 463/10/3 575/49/3 539/81/3 482/11/3
f 479/28/5 547/27/5 554/96/5 472/40/5
f 465/180/5 513/69/5 512/58/5 523/39/5 525/74/5 471/181/5
f 471/182/23 529/77/23 528/59/23 515/53/23 517/70/23 468/183/23
f 517/184/193 516/185/193 519/71/193 521/73/193 468/63/193
f 458/3/24 583/120/24 590/147/24 455/13/24
f 476/34/23 561/33/23 581/114/23 460/54/23
f 457/16/22 589/55/22 567/103/22 467/17/22
f 468/63/22 521/73/22 520/15/22 531/18/22 533/78/22 474/64/22
f 525/186/192 524/187/192 527/75/192 529/77/192 471/182/192
f 473/37/4 527/75/4 524/187/4 469/60/4
f 533/188/191 532/19/191 535/22/191 537/80/191 474/176/191
f 464/20/21 569/141/21 576/52/21 461/21/21
f 157/189/3 474/176/3 465/177/3 154/190/3
f 154/191/5 465/180/5 471/181/5 156/192/5
f 156/193/23 471/182/23 468/183/23 155/194/23
f 487/195/183 483/172/183 596/149/183 595/148/183
f 493/175/183 489/174/183 598/155/183 597/154/183
f 499/196/183 495/197/183 600/161/183 599/160/183
f 505/198/183 501/199/183 602/167/183 601/166/183
f 483/172/183 493/175/183 597/154/183 596/149/183
f 495/197/183 487/195/183 595/148/183 600/161/183
f 501/199/183 499/196/183 599/160/183 602/167/183
f 489/174/183 505/198/183 601/166/183 598/155/183
f 454/173/183 501/199/183 505/198/183 489/174/183
f 487/195/183 495/197/183 454/173/183 483/172/183
f 495/197/183 499/196/183 501/199/183 454/173/183
o Cylinder
v 0.575902 0.000000 -0.212419
v -3.859471 -0.000000 -0.212419
v 0.575902 0.106209 -0.183960
v -3.859471 0.106209 -0.183960
v 0.575902 0.183960 -0.106209
v -3.859471 0.183960 -0.106209
v 0.575902 0.212419 0.000000
v -3.859471 0.212419 0.000000
v 0.575902 0.183960 0.106209
v -3.859471 0.183960 0.106209
v 0.575902 0.106209 0.183960
v -3.859471 0.106209 0.183960
v 0.575902 0.000000 0.212419
v -3.859471 -0.000000 0.212419
v 0.575902 -0.106209 0.183960
v -3.859471 -0.106209 0.183960
v 0.575902 -0.183960 0.106209
v -3.859471 -0.183960 0.106209
v 0.575902 -0.212419 0.000000
v -3.859471 -0.212419 0.000000
v 0.575902 -0.183960 -0.106209
v -3.859471 -0.183960 -0.106209
v 0.575902 -0.106209 -0.183960
v -3.859471 -0.106209 -0.183960
v -3.701529 -0.000000 -0.213632
v -3.701529 0.106816 -0.185011
v -3.701529 0.185011 -0.106816
v -3.701529 0.213632 0.000000
v -3.701529 0.185011 0.106816
v -3.701529 0.106816 0.185011
v -3.701529 -0.000000 0.213632
v -3.701529 -0.106816 0.185011
v -3.701529 -0.185011 0.106816
v -3.701529 -0.213632 0.000000
v -3.701529 -0.185011 -0.106816
v -3.701529 -0.106816 -0.185011
v 0.412935 0.106816 -0.185011
v 0.412935 0.185011 -0.106816
v 0.412935 0.213632 0.000000
v 0.412935 0.185011 0.106816
v 0.412935 0.106816 0.185011
v 0.412935 0.000000 0.213632
v 0.412935 -0.106816 0.185011
v 0.412935 -0.185011 0.106816
v 0.412935 -0.213632 0.000000
v 0.412935 -0.185011 -0.106816
v 0.412935 -0.106816 -0.185011
v 0.412935 0.000000 -0.213632
v -1.644680 -0.000000 -0.213632
v -1.644680 0.106816 -0.185011
v -1.644680 0.185011 -0.106816
v -1.644680 0.213632 0.000000
v -1.644680 0.185011 0.106816
v -1.644680 0.106816 0.185011
v -1.644680 -0.000000 0.213632
v -1.644680 -0.106816 0.185011
v -1.644680 -0.185011 0.106816
v -1.644680 -0.213632 0.000000
v -1.644680 -0.185011 -0.106816
v -1.644680 -0.106816 -0.185011
vn -0.0074 0.2588 -0.9659
vn -0.0074 0.7071 -0.7071
vn -0.0074 0.9659 -0.2588
vn -0.0074 0.9659 0.2588
vn -0.0074 0.7071 0.7071
vn -0.0074 0.2588 0.9659
vn -0.0074 -0.2588 0.9659
vn -0.0074 -0.7071 0.7071
vn -0.0074 -0.9659 0.2588
vn -0.0074 -0.9659 -0.2588
vn -1.0000 -0.0000 -0.0000
vn -0.0074 -0.7071 -0.7071
vn -0.0074 -0.2588 -0.9659
vn 1.0000 -0.0000 -0.0000
vn -0.0000 -0.2588 -0.9659
vn -0.0000 -0.7071 -0.7071
vn -0.0000 -0.9659 -0.2588
vn -0.0000 -0.9659 0.2588
vn -0.0000 -0.7071 0.7071
vn -0.0000 -0.2588 0.9659
vn -0.0000 0.2588 0.9659
vn -0.0000 0.7071 0.7071
vn -0.0000 0.9659 0.2588
vn -0.0000 0.9659 -0.2588
vn -0.0000 0.7071 -0.7071
vn -0.0000 0.2588 -0.9659
vn 0.0072 0.2588 -0.9659
vn 0.0072 0.7071 -0.7071
vn 0.0072 0.9659 -0.2588
vn 0.0072 0.9659 0.2588
vn 0.0072 0.7071 0.7071
vn 0.0072 0.2588 0.9659
vn 0.0072 -0.2588 0.9659
vn 0.0072 -0.7071 0.7071
vn 0.0072 -0.9659 0.2588
vn 0.0072 -0.9659 -0.2588
vn 0.0072 -0.7071 -0.7071
vn 0.0072 -0.2588 -0.9659
vt 0.258109 0.020993
vt 0.258109 0.015649
vt 0.279360 0.015649
vt 0.279360 0.020993
vt 0.015648 0.020993
vt 0.015648 0.015649
vt 0.036899 0.015649
vt 0.036899 0.020993
vt 0.061437 0.015649
vt 0.061437 0.020993
vt 0.082688 0.015649
vt 0.082688 0.020993
vt 0.310657 0.020993
vt 0.310657 0.015649
vt 0.331908 0.015649
vt 0.331908 0.020993
vt 0.356446 0.015649
vt 0.356446 0.020993
vt 0.377696 0.015649
vt 0.377696 0.020993
vt 0.113985 0.020993
vt 0.113985 0.015649
vt 0.135235 0.015649
vt 0.135235 0.020993
vt 0.159773 0.015649
vt 0.159773 0.020993
vt 0.181024 0.015649
vt 0.181024 0.020993
vt 0.442513 0.353785
vt 0.421262 0.341516
vt 0.408993 0.320265
vt 0.408993 0.295727
vt 0.421262 0.274477
vt 0.442513 0.262208
vt 0.467051 0.262208
vt 0.488301 0.274477
vt 0.500570 0.295727
vt 0.500570 0.320265
vt 0.488301 0.341516
vt 0.467051 0.353785
vt 0.212321 0.020993
vt 0.212321 0.015649
vt 0.233571 0.015649
vt 0.233571 0.020993
vt 0.442513 0.230911
vt 0.421262 0.218642
vt 0.408993 0.197391
vt 0.408993 0.172853
vt 0.421262 0.151603
vt 0.442513 0.139334
vt 0.467051 0.139334
vt 0.488301 0.151603
vt 0.500570 0.172853
vt 0.500570 0.197391
vt 0.488301 0.218642
vt 0.467051 0.230911
vt 0.233571 0.499308
vt 0.258109 0.499308
vt 0.212321 0.499308
vt 0.159773 0.499308
vt 0.181024 0.499308
vt 0.135235 0.499308
vt 0.113985 0.499308
vt 0.356446 0.499308
vt 0.377696 0.499308
vt 0.331908 0.499308
vt 0.310657 0.499308
vt 0.061437 0.499308
vt 0.082688 0.499308
vt 0.036899 0.499308
vt 0.015648 0.499308
vt 0.279360 0.499308
vt 0.258109 0.984351
vt 0.258109 0.977731
vt 0.279360 0.977731
vt 0.279360 0.984351
vt 0.015648 0.984351
vt 0.015648 0.977731
vt 0.036899 0.977731
vt 0.036899 0.984351
vt 0.061437 0.977731
vt 0.061437 0.984351
vt 0.082688 0.977731
vt 0.082688 0.984351
vt 0.310657 0.984352
vt 0.310657 0.977731
vt 0.331908 0.977731
vt 0.331908 0.984352
vt 0.356446 0.977731
vt 0.356446 0.984352
vt 0.377696 0.977731
vt 0.377696 0.984352
vt 0.113985 0.984351
vt 0.113985 0.977731
vt 0.135235 0.977731
vt 0.135235 0.984352
vt 0.159773 0.977731
vt 0.159773 0.984352
vt 0.181024 0.977731
vt 0.181024 0.984352
vt 0.212321 0.984351
vt 0.212321 0.977731
vt 0.233571 0.977731
vt 0.233571 0.984351
s 0
f 627/200/195 604/201/195 606/202/195 628/203/195
f 628/204/196 606/205/196 608/206/196 629/207/196
f 629/207/197 608/206/197 610/208/197 630/209/197
f 630/209/198 610/208/198 612/210/198 631/211/198
f 631/212/199 612/213/199 614/214/199 632/215/199
f 632/215/200 614/214/200 616/216/200 633/217/200
f 633/217/201 616/216/201 618/218/201 634/219/201
f 634/220/202 618/221/202 620/222/202 635/223/202
f 635/223/203 620/222/203 622/224/203 636/225/203
f 636/225/204 622/224/204 624/226/204 637/227/204
f 606/228/205 604/229/205 626/230/205 624/231/205 622/232/205 620/233/205 618/234/205 616/235/205 614/236/205 612/237/205 610/238/205 608/239/205
f 637/240/206 624/241/206 626/242/206 638/243/206
f 638/243/207 626/242/207 604/201/207 627/200/207
f 603/244/208 605/245/208 607/246/208 609/247/208 611/248/208 613/249/208 615/250/208 617/251/208 619/252/208 621/253/208 623/254/208 625/255/208
f 662/256/209 638/243/209 627/200/209 651/257/209
f 661/258/210 637/240/210 638/243/210 662/256/210
f 660/259/211 636/225/211 637/227/211 661/260/211
f 659/261/212 635/223/212 636/225/212 660/259/212
f 658/262/213 634/220/213 635/223/213 659/261/213
f 657/263/214 633/217/214 634/219/214 658/264/214
f 656/265/215 632/215/215 633/217/215 657/263/215
f 655/266/216 631/212/216 632/215/216 656/265/216
f 654/267/217 630/209/217 631/211/217 655/268/217
f 653/269/218 629/207/218 630/209/218 654/267/218
f 652/270/219 628/204/219 629/207/219 653/269/219
f 651/257/220 627/200/220 628/203/220 652/271/220
f 603/272/221 650/273/221 639/274/221 605/275/221
f 605/276/222 639/277/222 640/278/222 607/279/222
f 607/279/223 640/278/223 641/280/223 609/281/223
f 609/281/224 641/280/224 642/282/224 611/283/224
f 611/284/225 642/285/225 643/286/225 613/287/225
f 613/287/226 643/286/226 644/288/226 615/289/226
f 615/289/227 644/288/227 645/290/227 617/291/227
f 617/292/228 645/293/228 646/294/228 619/295/228
f 619/295/229 646/294/229 647/296/229 621/297/229
f 621/297/230 647/296/230 648/298/230 623/299/230
f 623/300/231 648/301/231 649/302/231 625/303/231
f 625/303/232 649/302/232 650/273/232 603/272/232
f 650/273/220 651/257/220 652/271/220 639/274/220
f 639/277/219 652/270/219 653/269/219 640/278/219
f 640/278/218 653/269/218 654/267/218 641/280/218
f 641/280/217 654/267/217 655/268/217 642/282/217
f 642/285/216 655/266/216 656/265/216 643/286/216
f 643/286/215 656/265/215 657/263/215 644/288/215
f 644/288/214 657/263/214 658/264/214 645/290/214
f 645/293/213 658/262/213 659/261/213 646/294/213
f 646/294/212 659/261/212 660/259/212 647/296/212
f 647/296/211 660/259/211 661/260/211 648/298/211
f 648/301/210 661/258/210 662/256/210 649/302/210
f 649/302/209 662/256/209 651/257/209 650/273/209
