# Blender 5.2.2 LTS
# www.blender.org
mtllib sword.mtl
o blade
v 0.916667 0.023152 -0.999514
v 0.916667 -0.023152 -0.999514
v 0.875000 0.021452 11.030357
v 0.875000 -0.021452 11.030357
v -0.916667 0.023152 -0.999514
v -0.916667 -0.023152 -0.999514
v -0.875000 0.021452 11.030357
v -0.875000 -0.021452 11.030357
v 0.000000 -0.100037 -0.999636
v 0.000000 0.021452 13.299532
v 0.000000 -0.021452 13.299533
v 0.000000 0.100037 -0.999636
v 0.000000 0.109225 11.030357
v 0.000000 -0.109225 11.030357
v -0.937500 -0.021452 -0.259913
v 0.937500 0.021452 -0.259913
v -0.937500 0.021452 -0.259913
v 0.937500 -0.021452 -0.259913
v 0.000000 0.116369 -0.259913
v 0.000000 -0.116369 -0.259913
v -0.937500 -0.021452 10.030645
v 0.937500 0.021452 10.030645
v 0.000000 0.116369 10.030645
v 0.000000 -0.116369 10.030645
v -0.937500 0.021452 10.030645
v 0.937500 -0.021452 10.030645
vn -0.0997 0.9943 0.0385
vn -0.9330 -0.0000 0.3598
vn -0.9996 -0.0000 -0.0282
vn 0.0997 -0.9943 0.0385
vn 0.9981 -0.0000 0.0624
vn 0.0001 -0.0000 -1.0000
vn -0.0001 -0.0000 -1.0000
vn -0.0997 -0.9943 0.0385
vn 0.9330 -0.0000 0.3598
vn 0.0997 0.9943 0.0385
vn -0.1003 0.9949 0.0067
vn 0.1003 0.9949 0.0067
vn -0.1003 -0.9949 0.0067
vn 0.1003 -0.9949 0.0067
vn 0.0923 -0.9957 -0.0111
vn -0.0923 -0.9957 -0.0111
vn 0.0923 0.9957 -0.0111
vn -0.0923 0.9957 -0.0111
vn 0.9996 -0.0000 -0.0282
vn -1.0000 -0.0000 -0.0000
vn -0.9981 -0.0000 0.0624
vn 0.1007 -0.9949 -0.0000
vn -0.1007 -0.9949 -0.0000
vn 0.1007 0.9949 -0.0000
vn -0.1007 0.9949 -0.0000
vn 1.0000 -0.0000 -0.0000
vt 0.068807 0.794039
vt 0.135669 0.794112
vt 0.068807 0.995912
vt 0.485540 0.998056
vt 0.483354 0.998056
vt 0.483354 0.791575
vt 0.485540 0.791575
vt 0.485540 0.002333
vt 0.483354 0.002333
vt 0.483354 0.001944
vt 0.485540 0.001944
vt 0.206420 0.203818
vt 0.139558 0.203745
vt 0.206420 0.001944
vt 0.491616 0.214248
vt 0.489429 0.214248
vt 0.489429 0.208425
vt 0.491616 0.208425
vt 0.495505 0.164167
vt 0.512864 0.162183
vt 0.512864 0.229481
vt 0.510691 0.229729
vt 0.495505 0.096870
vt 0.497677 0.096621
vt 0.273283 0.203745
vt 0.489429 0.001944
vt 0.491616 0.001944
vt 0.001944 0.794112
vt 0.068807 0.788198
vt 0.135669 0.788270
vt 0.001944 0.788270
vt 0.273283 0.209586
vt 0.206420 0.209659
vt 0.139558 0.209586
vt 0.206420 0.995912
vt 0.139558 0.995840
vt 0.139558 0.995450
vt 0.206420 0.995523
vt 0.273283 0.995840
vt 0.273283 0.995450
vt 0.001944 0.002017
vt 0.068807 0.001944
vt 0.068807 0.002334
vt 0.001944 0.002406
vt 0.135669 0.002017
vt 0.135669 0.002406
vt 0.491616 0.998056
vt 0.489429 0.998056
vt 0.489429 0.997667
vt 0.491616 0.997667
vt 0.485540 0.785752
vt 0.483354 0.785752
s 0
usemtl Material
f 13/1/1 7/2/1 10/3/1
f 11/4/2 10/5/2 7/6/2 8/7/2
f 15/8/3 17/9/3 5/10/3 6/11/3
f 14/12/4 4/13/4 11/14/4
f 26/15/5 22/16/5 3/17/5 4/18/5
f 9/19/6 12/20/6 1/21/6 2/22/6
f 6/23/7 5/24/7 12/20/7 9/19/7
f 8/25/8 14/12/8 11/14/8
f 4/18/9 3/17/9 10/26/9 11/27/9
f 3/28/10 13/1/10 10/3/10
f 23/29/11 25/30/11 7/2/11 13/1/11
f 22/31/12 23/29/12 13/1/12 3/28/12
f 21/32/13 24/33/13 14/12/13 8/25/13
f 24/33/14 26/34/14 4/13/14 14/12/14
f 9/35/15 2/36/15 18/37/15 20/38/15
f 6/39/16 9/35/16 20/38/16 15/40/16
f 1/41/17 12/42/17 19/43/17 16/44/17
f 12/42/18 5/45/18 17/46/18 19/43/18
f 2/47/19 1/48/19 16/49/19 18/50/19
f 21/51/20 25/52/20 17/9/20 15/8/20
f 8/7/21 7/6/21 25/52/21 21/51/21
f 20/38/22 18/37/22 26/34/22 24/33/22
f 15/40/23 20/38/23 24/33/23 21/32/23
f 16/44/24 19/43/24 23/29/24 22/31/24
f 19/43/25 17/46/25 25/30/25 23/29/25
f 18/50/26 16/49/26 22/16/26 26/15/26
o guard_
v -0.940684 -0.275380 -0.865873
v -0.940684 0.275380 -0.865873
v -0.948168 -0.275380 -1.653131
v -0.948168 0.275380 -1.653131
v 0.943538 -0.275380 -0.864606
v 0.943538 0.275380 -0.864606
v 0.952019 -0.275380 -1.651424
v 0.952019 0.275380 -1.651424
v -2.782479 -0.262267 -0.873614
v -2.372262 -0.262267 -0.265207
v -2.372262 0.262267 -0.265207
v -2.782479 0.262267 -0.873614
v 2.783696 0.262267 -0.872909
v 2.783696 -0.262267 -0.872909
v 2.373164 -0.262267 -0.264641
v 2.373164 0.262267 -0.264641
v 1.704776 0.275380 -1.421857
v 2.244856 0.275380 -1.199796
v 2.244856 -0.275380 -1.199796
v 1.704776 -0.275380 -1.421857
v 1.972758 -0.275380 -0.529232
v 1.569580 -0.275380 -0.690919
v 1.569580 0.275380 -0.690919
v 1.972758 0.275380 -0.529232
v -1.526740 -0.275380 -0.709940
v -1.929242 -0.275380 -0.548678
v -2.186216 -0.275380 -1.225912
v -1.647048 -0.275380 -1.447444
v -1.526740 0.275380 -0.709940
v -1.929242 0.275380 -0.548678
v -1.647048 0.275380 -1.447444
v -2.186216 0.275380 -1.225912
v -0.947902 -0.314721 -1.582643
v -0.947902 0.314721 -1.582643
v 0.951717 -0.314721 -1.580952
v 0.951717 0.314721 -1.580952
v -2.746717 -0.275380 -0.819260
v -2.746717 0.275380 -0.819260
v 2.747622 -0.275380 -0.818735
v 2.747622 0.275380 -0.818735
v 2.220547 0.314721 -1.139911
v 1.692708 0.314721 -1.356573
v 2.220547 -0.314721 -1.139911
v 1.692708 -0.314721 -1.356573
v -2.163298 0.314721 -1.165413
v -1.636364 0.314721 -1.381550
v -2.163298 -0.314721 -1.165413
v -1.636364 -0.314721 -1.381550
v -0.940983 -0.314721 -0.939380
v 0.943876 0.314721 -0.938095
v -2.410729 -0.275380 -0.321114
v 2.411415 0.275380 -0.320685
v 1.998111 0.314721 -0.591689
v 1.582166 0.314721 -0.759007
v -1.953146 -0.314721 -0.611775
v -1.537886 -0.314721 -0.778663
v -0.940983 0.314721 -0.939380
v 0.943876 -0.314721 -0.938095
v -2.410729 0.275380 -0.321114
v 2.411415 -0.275380 -0.320685
v 1.998111 -0.314721 -0.591689
v 1.582166 -0.314721 -0.759007
v -1.953146 0.314721 -0.611775
v -1.537886 0.314721 -0.778663
v 2.736343 0.275380 -0.902856
v 2.337488 0.275380 -0.288190
v 2.736343 -0.275380 -0.902856
v 2.337488 -0.275380 -0.288190
v 2.700281 -0.314721 -0.848154
v 2.700281 0.314721 -0.848154
v 2.375075 0.314721 -0.345253
v 2.375075 -0.314721 -0.345253
v -2.325157 -0.275380 -0.295403
v -2.325157 0.275380 -0.295403
v -2.719723 0.275380 -0.911961
v -2.719723 -0.275380 -0.911961
v -2.684016 -0.314721 -0.857102
v -2.684016 0.314721 -0.857102
v -2.362373 -0.314721 -0.352630
v -2.362373 0.314721 -0.352630
vn 0.0009 -0.0000 -1.0000
vn -0.0007 -0.0000 1.0000
vn -0.0003 -0.8816 0.4719
vn -0.0003 0.8816 0.4719
vn -0.8354 -0.0000 0.5497
vn 0.8260 -0.0000 0.5637
vn -0.5514 -0.0000 0.8343
vn -0.3722 -0.0000 0.9281
vn 0.2695 0.8542 -0.4446
vn 0.1972 0.8548 -0.4800
vn -0.2774 -0.8631 0.4221
vn -0.1874 -0.8644 0.4665
vn 0.5171 -0.0000 -0.8559
vn 0.3803 -0.0000 -0.9249
vn -0.5072 -0.0000 -0.8618
vn -0.3800 -0.0000 -0.9250
vn 0.2714 0.8629 0.4264
vn 0.1871 0.8646 0.4663
vn 0.5389 -0.0000 0.8424
vn 0.3719 -0.0000 0.9283
vn -0.2645 -0.8540 -0.4481
vn -0.1970 -0.8550 -0.4798
vn -0.1318 -0.8715 0.4723
vn -0.2673 -0.0000 0.9636
vn 0.1476 0.8615 -0.4858
vn 0.2917 -0.0000 -0.9565
vn -0.2823 -0.0000 -0.9593
vn 0.1264 0.8723 0.4724
vn 0.2571 -0.0000 0.9664
vn -0.1425 -0.8623 -0.4860
vn -0.0000 -1.0000 -0.0000
vn -0.1425 0.8623 -0.4860
vn -0.0000 1.0000 -0.0000
vn 0.1476 -0.8615 -0.4858
vn -0.1970 0.8550 -0.4798
vn -0.2645 0.8540 -0.4481
vn 0.1972 -0.8548 -0.4800
vn 0.2695 -0.8542 -0.4446
vn 0.8323 -0.0000 0.5543
vn -0.8291 -0.0000 0.5592
vn 0.0004 0.8732 -0.4874
vn 0.0004 -0.8732 -0.4874
vn -0.8238 -0.0000 0.5668
vn -0.2774 0.8631 0.4221
vn -0.1874 0.8644 0.4665
vn 0.2714 -0.8629 0.4264
vn 0.1871 -0.8646 0.4663
vn -0.1318 0.8715 0.4723
vn 0.1264 -0.8723 0.4724
vn 0.8288 -0.0000 0.5595
vn 0.5172 -0.7846 0.3418
vn 0.2347 0.8122 0.5341
vn 0.5172 0.7846 0.3418
vn 0.5162 -0.8536 -0.0692
vn 0.5345 -0.0000 -0.8452
vn 0.2347 -0.8122 0.5341
vn 0.5162 0.8536 -0.0692
vn -0.5509 -0.0000 0.8346
vn -0.4308 0.8571 0.2825
vn -0.1491 -0.8553 0.4963
vn -0.4490 0.8839 -0.1307
vn -0.4308 -0.8571 0.2825
vn -0.4490 -0.8839 -0.1307
vn 0.5397 -0.0000 0.8419
vn -0.1491 0.8553 0.4963
vn -0.5214 -0.0000 -0.8533
vt 0.417207 0.817455
vt 0.375121 0.817455
vt 0.375121 0.687780
vt 0.417207 0.687780
vt 0.437379 0.096748
vt 0.479465 0.096748
vt 0.479465 0.203987
vt 0.437379 0.203987
vt 0.320243 0.118720
vt 0.320243 0.257777
vt 0.318123 0.257777
vt 0.318123 0.118720
vt 0.320243 0.495218
vt 0.320243 0.634274
vt 0.318123 0.634274
vt 0.318123 0.495218
vt 0.537591 0.348537
vt 0.495505 0.348537
vt 0.495505 0.346853
vt 0.537591 0.346853
vt 0.537591 0.235565
vt 0.495505 0.235565
vt 0.495505 0.233618
vt 0.537591 0.233618
vt 0.437379 0.002992
vt 0.479465 0.002992
vt 0.479465 0.034194
vt 0.437379 0.034194
vt 0.479465 0.061009
vt 0.437379 0.061009
vt 0.317355 0.380588
vt 0.318814 0.379616
vt 0.340445 0.414570
vt 0.338843 0.415220
vt 0.354698 0.450147
vt 0.352952 0.450470
vt 0.279402 0.347126
vt 0.277764 0.346035
vt 0.295401 0.320135
vt 0.297199 0.320865
vt 0.305590 0.293774
vt 0.307550 0.294136
vt 0.375121 0.561050
vt 0.417207 0.561050
vt 0.417207 0.601457
vt 0.375121 0.601457
vt 0.417207 0.639780
vt 0.375121 0.639780
vt 0.417207 0.905624
vt 0.375121 0.905624
vt 0.375121 0.878362
vt 0.417207 0.878362
vt 0.375121 0.850332
vt 0.417207 0.850332
vt 0.279861 0.722890
vt 0.278218 0.721809
vt 0.296757 0.693580
vt 0.298573 0.694267
vt 0.306945 0.667219
vt 0.308924 0.667539
vt 0.495505 0.003797
vt 0.537591 0.003797
vt 0.537591 0.036619
vt 0.495505 0.036619
vt 0.537591 0.062066
vt 0.495505 0.062066
vt 0.317916 0.005058
vt 0.319380 0.004095
vt 0.342271 0.042192
vt 0.340653 0.042805
vt 0.356524 0.077769
vt 0.354761 0.078054
vt 0.371232 0.495218
vt 0.369344 0.495218
vt 0.537591 0.092733
vt 0.495505 0.092733
vt 0.371232 0.118720
vt 0.369344 0.118720
vt 0.308924 0.085456
vt 0.356524 0.675225
vt 0.354761 0.674941
vt 0.369344 0.634274
vt 0.371232 0.634274
vt 0.307550 0.458858
vt 0.354698 0.302848
vt 0.352952 0.302525
vt 0.369344 0.257777
vt 0.371232 0.257777
vt 0.298573 0.058727
vt 0.279861 0.030105
vt 0.342271 0.710802
vt 0.340653 0.710190
vt 0.319380 0.748900
vt 0.317916 0.747937
vt 0.340445 0.338425
vt 0.338843 0.337774
vt 0.318814 0.373379
vt 0.317355 0.372407
vt 0.297199 0.432130
vt 0.279402 0.405868
vt 0.537591 0.282387
vt 0.495505 0.282387
vt 0.495505 0.280654
vt 0.537591 0.280654
vt 0.537591 0.392333
vt 0.495505 0.392333
vt 0.537591 0.394223
vt 0.495505 0.394223
vt 0.277764 0.406960
vt 0.295401 0.432860
vt 0.305590 0.459221
vt 0.278218 0.031186
vt 0.296757 0.059415
vt 0.306945 0.085776
vt 0.316633 0.373570
vt 0.278804 0.348008
vt 0.277171 0.406090
vt 0.278805 0.404987
vt 0.316633 0.379425
vt 0.318088 0.374553
vt 0.375121 0.559693
vt 0.417207 0.559693
vt 0.277171 0.346905
vt 0.318088 0.378442
vt 0.437379 0.001944
vt 0.479465 0.001944
vt 0.316633 0.750067
vt 0.278804 0.724505
vt 0.277171 0.029593
vt 0.278805 0.028489
vt 0.318088 0.751050
vt 0.316633 0.002927
vt 0.318088 0.001944
vt 0.495505 0.001944
vt 0.537591 0.001944
vt 0.277171 0.723402
vt 0.417207 0.907162
vt 0.375121 0.907162
s 0
f 29/53/27 30/54/27 34/55/27 33/56/27
f 31/57/28 32/58/28 28/59/28 27/60/28
f 75/61/29 84/62/29 31/63/29 27/64/29
f 76/65/30 83/66/30 28/67/30 32/68/30
f 63/69/31 64/70/31 38/71/31 35/72/31
f 86/73/32 78/74/32 42/75/32 41/76/32
f 94/77/33 92/78/33 50/79/33 47/80/33
f 47/80/34 50/79/34 49/81/34 48/82/34
f 96/83/35 91/84/35 44/85/35 67/86/35
f 67/86/36 44/85/36 43/87/36 68/88/36
f 98/89/37 94/90/37 47/91/37 87/92/37
f 87/92/38 47/91/38 48/93/38 88/94/38
f 91/95/39 93/96/39 45/97/39 44/98/39
f 44/98/40 45/97/40 46/99/40 43/100/40
f 102/101/41 101/102/41 58/103/41 53/104/41
f 53/104/42 58/103/42 57/105/42 54/106/42
f 106/107/43 100/108/43 56/109/43 89/110/43
f 89/110/44 56/109/44 55/111/44 90/112/44
f 100/113/45 99/114/45 52/115/45 56/116/45
f 56/116/46 52/115/46 51/117/46 55/118/46
f 103/119/47 102/120/47 53/121/47 73/122/47
f 73/122/48 53/121/48 54/123/48 74/124/48
f 88/94/49 48/93/49 31/63/49 84/62/49
f 48/82/50 49/81/50 32/58/50 31/57/50
f 68/88/51 43/87/51 34/125/51 62/126/51
f 43/100/52 46/99/52 33/56/52 34/55/52
f 54/106/53 57/105/53 30/54/53 29/53/53
f 90/112/54 55/111/54 28/67/54 83/66/54
f 55/118/55 51/117/55 27/127/55 28/128/55
f 74/124/56 54/123/56 29/129/56 59/130/56
f 82/131/57 74/124/57 59/130/57 75/61/57
f 57/132/58 72/133/58 60/134/58 30/135/58
f 80/136/59 68/88/59 62/126/59 76/65/59
f 46/137/60 70/138/60 61/139/60 33/140/60
f 81/141/57 73/122/57 74/124/57 82/131/57
f 105/142/57 103/119/57 73/122/57 81/141/57
f 58/143/61 71/144/61 72/133/61 57/132/61
f 101/145/62 104/146/62 71/144/62 58/143/62
f 45/147/63 69/148/63 70/138/63 46/137/63
f 93/149/64 95/150/64 69/148/64 45/147/64
f 79/151/59 67/86/59 68/88/59 80/136/59
f 97/152/59 96/83/59 67/86/59 79/151/59
f 40/153/65 39/154/65 66/155/65 65/156/65
f 77/157/66 85/158/66 64/70/66 63/69/66
f 34/125/67 30/135/67 60/134/67 62/126/67
f 29/129/68 33/140/68 61/139/68 59/130/68
f 36/159/69 37/160/69 85/158/69 77/157/69
f 92/161/70 97/152/70 79/151/70 50/162/70
f 50/162/71 79/151/71 80/136/71 49/163/71
f 99/164/72 105/142/72 81/141/72 52/165/72
f 52/165/73 81/141/73 82/131/73 51/166/73
f 49/163/74 80/136/74 76/65/74 32/68/74
f 51/166/75 82/131/75 75/61/75 27/64/75
f 72/133/59 90/112/59 83/66/59 60/134/59
f 70/138/57 88/94/57 84/62/57 61/139/57
f 71/144/59 89/110/59 90/112/59 72/133/59
f 104/146/59 106/107/59 89/110/59 71/144/59
f 69/148/57 87/92/57 88/94/57 70/138/57
f 95/150/57 98/89/57 87/92/57 69/148/57
f 65/156/76 66/155/76 78/74/76 86/73/76
f 62/126/59 60/134/59 83/66/59 76/65/59
f 59/130/57 61/139/57 84/62/57 75/61/57
f 65/167/77 86/168/77 98/89/77 95/150/77
f 42/169/78 78/170/78 97/152/78 92/161/78
f 78/170/79 66/171/79 96/83/79 97/152/79
f 40/172/80 65/167/80 95/150/80 93/149/80
f 39/173/81 40/174/81 93/96/81 91/95/81
f 86/168/82 41/175/82 94/90/82 98/89/82
f 66/171/83 39/176/83 91/84/83 96/83/83
f 41/177/84 42/178/84 92/78/84 94/77/84
f 64/179/85 85/180/85 106/107/85 104/146/85
f 36/181/86 77/182/86 105/142/86 99/164/86
f 38/183/87 64/179/87 104/146/87 101/145/87
f 77/182/88 63/184/88 103/119/88 105/142/88
f 63/184/89 35/185/89 102/120/89 103/119/89
f 37/186/90 36/187/90 99/114/90 100/113/90
f 85/180/91 37/188/91 100/108/91 106/107/91
f 35/189/92 38/190/92 101/102/92 102/101/92
o handle.001
v -0.298422 -0.188732 -1.544145
v -0.298422 0.188732 -1.544145
v -0.238383 -0.150762 -5.649630
v -0.238383 0.150762 -5.649630
v 0.298422 -0.188732 -1.544145
v 0.298422 0.188732 -1.544145
v 0.238383 -0.150762 -5.649630
v 0.238383 0.150762 -5.649630
v -0.000000 -0.199002 -5.650097
v -0.000000 0.199002 -5.650097
v -0.000000 -0.249134 -1.543645
v -0.000000 0.249134 -1.543645
v -0.393928 0.000000 -1.543645
v -0.314660 0.000000 -5.650097
v 0.314660 0.000000 -5.650097
v 0.393928 0.000000 -1.543645
v -0.000000 0.000000 -1.542146
v -0.000000 0.000000 -5.651500
v -0.301392 -0.190611 -1.612563
v -0.301392 0.190611 -1.612563
v 0.301392 -0.190611 -1.612563
v 0.301392 0.190611 -1.612563
v -0.000000 0.265466 -1.612563
v -0.000000 -0.265466 -1.612563
v 0.419752 0.000000 -1.612563
v -0.419752 0.000000 -1.612563
v -0.242886 0.153609 -5.564430
v 0.242886 -0.153609 -5.564430
v -0.338263 0.000000 -5.564430
v -0.242886 -0.153609 -5.564430
v 0.242886 0.153609 -5.564430
v -0.000000 0.213929 -5.564430
v -0.000000 -0.213929 -5.564430
v 0.338263 0.000000 -5.564430
v -0.289322 -0.182977 -2.425105
v 0.289322 0.182977 -2.425105
v -0.000000 0.254837 -2.425105
v -0.000000 -0.254837 -2.425105
v 0.402946 0.000000 -2.425105
v -0.289322 0.182977 -2.425105
v 0.289322 -0.182977 -2.425105
v -0.402946 0.000000 -2.425105
v -0.258688 0.163603 -4.498642
v 0.258688 -0.163603 -4.498642
v -0.360269 0.000000 -4.498642
v -0.258688 -0.163603 -4.498642
v 0.258688 0.163603 -4.498642
v -0.000000 0.227847 -4.498642
v -0.000000 -0.227847 -4.498642
v 0.360269 0.000000 -4.498642
vn -0.8611 0.4859 -0.1497
vn 0.0039 0.0062 -1.0000
vn 0.8558 0.4827 0.1860
vn -0.0033 0.0053 1.0000
vn 0.2181 -0.9668 0.1329
vn -0.2181 0.9668 0.1329
vn 0.2181 0.9668 0.1329
vn -0.2181 -0.9668 0.1329
vn 0.0033 0.0053 1.0000
vn -0.0039 0.0062 -1.0000
vn -0.0039 -0.0062 -1.0000
vn 0.0033 -0.0053 1.0000
vn -0.0033 -0.0053 1.0000
vn 0.8558 -0.4827 0.1860
vn 0.0039 -0.0062 -1.0000
vn -0.8611 -0.4859 -0.1497
vn -0.8558 -0.4827 0.1860
vn 0.8494 -0.5275 -0.0176
vn -0.2410 -0.9704 -0.0127
vn 0.2410 0.9704 -0.0127
vn -0.2410 0.9704 -0.0127
vn 0.2410 -0.9704 -0.0127
vn 0.8494 0.5275 -0.0176
vn -0.8558 0.4827 0.1860
vn 0.8611 0.4859 -0.1497
vn 0.2189 -0.9699 -0.1067
vn -0.2189 0.9699 -0.1067
vn 0.2189 0.9699 -0.1067
vn -0.2189 -0.9699 -0.1067
vn 0.8611 -0.4859 -0.1497
vn -0.8494 -0.5274 -0.0175
vn -0.8494 0.5274 -0.0175
vn -0.8494 0.5275 -0.0176
vn -0.8494 -0.5275 -0.0176
vn 0.8494 0.5274 -0.0175
vn 0.2410 -0.9704 -0.0126
vn -0.2410 0.9704 -0.0126
vn 0.2410 0.9704 -0.0126
vn -0.2410 -0.9704 -0.0126
vn 0.8494 -0.5274 -0.0175
vt 0.380965 0.275430
vt 0.387489 0.275286
vt 0.387512 0.276786
vt 0.380997 0.276930
vt 0.509821 0.420749
vt 0.524137 0.417237
vt 0.524137 0.434528
vt 0.515374 0.443385
vt 0.433456 0.003797
vt 0.425309 0.003618
vt 0.425333 0.002014
vt 0.433490 0.002194
vt 0.513431 0.314620
vt 0.531357 0.310223
vt 0.531357 0.331874
vt 0.520384 0.342965
vt 0.404305 0.554201
vt 0.425309 0.554131
vt 0.425333 0.555735
vt 0.404305 0.555805
vt 0.404305 0.003548
vt 0.383302 0.003618
vt 0.383278 0.002014
vt 0.404305 0.001944
vt 0.383302 0.554131
vt 0.383278 0.555735
vt 0.506477 0.286276
vt 0.521336 0.291030
vt 0.504268 0.398112
vt 0.516135 0.401908
vt 0.495505 0.406969
vt 0.495505 0.424261
vt 0.495505 0.297367
vt 0.495505 0.319018
vt 0.505525 0.338211
vt 0.433456 0.553952
vt 0.433490 0.555555
vt 0.503507 0.439589
vt 0.387489 0.282463
vt 0.380965 0.282319
vt 0.380997 0.280819
vt 0.387512 0.280962
vt 0.375121 0.555555
vt 0.375155 0.553952
vt 0.424518 0.502850
vt 0.432359 0.502677
vt 0.384093 0.502850
vt 0.404305 0.502917
vt 0.424518 0.054899
vt 0.404305 0.054832
vt 0.384093 0.054899
vt 0.432359 0.055072
vt 0.375121 0.002194
vt 0.375155 0.003797
vt 0.427613 0.276930
vt 0.421099 0.276786
vt 0.421122 0.275286
vt 0.427645 0.275430
vt 0.404305 0.281018
vt 0.421099 0.280962
vt 0.421122 0.282463
vt 0.404305 0.282519
vt 0.404305 0.276731
vt 0.404305 0.275230
vt 0.427613 0.280819
vt 0.427646 0.282319
vt 0.386400 0.353104
vt 0.379454 0.352951
vt 0.379454 0.204798
vt 0.386400 0.204644
vt 0.376252 0.055072
vt 0.376252 0.502677
vt 0.429156 0.204798
vt 0.422211 0.204644
vt 0.404305 0.353164
vt 0.422211 0.353104
vt 0.404305 0.204585
vt 0.429156 0.352951
s 0
f 135/191/93 133/192/93 110/193/93 120/194/93
f 124/195/94 116/196/94 114/197/94 121/198/94
f 131/199/95 128/200/95 112/201/95 122/202/95
f 123/203/96 118/204/96 108/205/96 119/206/96
f 130/207/97 127/208/97 111/209/97 117/210/97
f 129/211/98 126/212/98 108/213/98 118/214/98
f 128/200/99 129/211/99 118/214/99 112/201/99
f 125/215/100 130/207/100 117/210/100 107/216/100
f 122/217/101 112/218/101 118/204/101 123/203/101
f 120/219/102 110/220/102 116/196/102 124/195/102
f 109/221/103 120/219/103 124/195/103 115/222/103
f 111/223/104 122/217/104 123/203/104 117/224/104
f 117/224/105 123/203/105 119/206/105 107/225/105
f 127/208/106 131/226/106 122/227/106 111/209/106
f 115/222/107 124/195/107 121/198/107 113/228/107
f 136/229/108 135/230/108 120/231/108 109/232/108
f 107/216/109 119/233/109 132/234/109 125/215/109
f 147/235/110 145/236/110 131/226/110 127/208/110
f 141/237/111 144/238/111 130/207/111 125/215/111
f 142/239/112 143/240/112 129/211/112 128/200/112
f 143/240/113 146/241/113 126/212/113 129/211/113
f 144/238/114 147/235/114 127/208/114 130/207/114
f 145/242/115 142/239/115 128/200/115 131/199/115
f 119/243/116 108/213/116 126/212/116 132/244/116
f 121/245/117 114/246/117 137/247/117 140/248/117
f 115/249/118 113/250/118 134/251/118 139/252/118
f 116/253/119 110/193/119 133/192/119 138/254/119
f 114/246/120 116/253/120 138/254/120 137/247/120
f 109/232/121 115/249/121 139/252/121 136/229/121
f 113/250/122 121/255/122 140/256/122 134/251/122
f 152/257/123 151/258/123 135/230/123 136/229/123
f 151/259/124 149/260/124 133/192/124 135/191/124
f 132/244/125 126/212/125 146/241/125 148/261/125
f 125/215/126 132/234/126 148/262/126 141/237/126
f 156/263/127 153/264/127 142/239/127 145/242/127
f 155/265/128 150/266/128 147/235/128 144/238/128
f 154/267/129 149/260/129 146/241/129 143/240/129
f 153/264/130 154/267/130 143/240/130 142/239/130
f 152/257/131 155/265/131 144/238/131 141/237/131
f 150/266/132 156/268/132 145/236/132 147/235/132
f 134/251/132 140/256/132 156/268/132 150/266/132
f 136/229/111 139/252/111 155/265/111 152/257/111
f 137/247/112 138/254/112 154/267/112 153/264/112
f 138/254/113 133/192/113 149/260/113 154/267/113
f 139/252/114 134/251/114 150/266/114 155/265/114
f 140/248/127 137/247/127 153/264/127 156/263/127
f 148/261/124 146/241/124 149/260/124 151/259/124
f 141/237/123 148/262/123 151/258/123 152/257/123
